<?xml version="1.0" encoding="UTF-8"?> <svg xmlns="http://www.w3.org/2000/svg" xmlns:xlink="http://www.w3.org/1999/xlink" id="Layer_1" data-name="Layer 1" width="214.3" height="41.54" viewBox="0 0 214.3 41.54"><defs><style>.cls-1{fill:#333;}.cls-2{fill:#846eff;}.cls-3{fill:url(#linear-gradient);}.cls-4{fill:url(#linear-gradient-2);}.cls-5{fill:url(#linear-gradient-3);}.cls-6{fill:url(#linear-gradient-4);}.cls-7,.cls-8{fill:#fff;}.cls-7{fill-rule:evenodd;}</style><linearGradient id="linear-gradient" x1="1.19" y1="36.52" x2="21.47" y2="22.07" gradientTransform="matrix(1, 0, 0, -1, -3.67, 40.19)" gradientUnits="userSpaceOnUse"><stop offset="0" stop-color="#d1d3d4"></stop><stop offset="0.33" stop-color="#d4d6d7"></stop><stop offset="0.6" stop-color="#dee0e0"></stop><stop offset="0.84" stop-color="#eff0f0"></stop><stop offset="1" stop-color="#fff"></stop></linearGradient><linearGradient id="linear-gradient-2" x1="28.6" y1="26.32" x2="53.51" y2="26.32" gradientTransform="matrix(1, 0, 0, -1, -3.67, 40.19)" gradientUnits="userSpaceOnUse"><stop offset="0" stop-color="#fff"></stop><stop offset="0.16" stop-color="#eff0f0"></stop><stop offset="0.4" stop-color="#dee0e0"></stop><stop offset="0.67" stop-color="#d4d6d7"></stop><stop offset="1" stop-color="#d1d3d4"></stop></linearGradient><linearGradient id="linear-gradient-3" x1="1.28" y1="1700.91" x2="21.56" y2="1686.45" gradientTransform="translate(-3.67 -1663.32)" xlink:href="#linear-gradient"></linearGradient><linearGradient id="linear-gradient-4" x1="28.65" y1="12.74" x2="53.56" y2="12.74" xlink:href="#linear-gradient-2"></linearGradient></defs><path class="cls-1" d="M5.23,17.39V14.57S2.76,14.43,2.11,13A3.37,3.37,0,0,0,0,14.36S2.09,17.29,5.23,17.39Z" transform="translate(0)"></path><path class="cls-1" d="M44.52,17.3V14.48s2.47-.14,3.12-1.54a3.39,3.39,0,0,1,2.12,1.33S47.66,17.19,44.52,17.3Z" transform="translate(0)"></path><path class="cls-1" d="M44.63,23.88v2.83s2.47.13,3.12,1.53a3.34,3.34,0,0,0,2.12-1.32S47.77,24,44.63,23.88Z" transform="translate(0)"></path><path class="cls-1" d="M5.39,24.09v2.82s-2.46.14-3.06,1.53A3.34,3.34,0,0,1,.21,27.12S2.25,24.19,5.39,24.09Z" transform="translate(0)"></path><circle class="cls-2" cx="24.77" cy="20.77" r="20.77"></circle><path class="cls-3" d="M0,10.59s7.22-4.5,15.06-3.35c5.65,6,9.84,10.26,9.84,10.26v3.13H21.45l-9-10S5.23,10.28,0,14.36Z" transform="translate(0)"></path><path class="cls-4" d="M49.83,10.62s-7.21-4.5-15.06-3.35c-5.65,6-9.84,10.25-9.84,10.25v3.14h3.46l9-10s7.22-.32,12.45,3.76Z" transform="translate(0)"></path><path class="cls-5" d="M.09,30.67S7.33,35.19,15.15,34C20.8,28,25,23.76,25,23.76V20.62H21.53l-9,10S5.33,31,.09,26.9Z" transform="translate(0)"></path><path class="cls-6" d="M49.89,30.7s-7.22,4.49-15.07,3.35C29.17,28.05,25,23.8,25,23.8V20.66h3.46l9,10s7.22.32,12.45-3.76Z" transform="translate(0)"></path><path class="cls-7" d="M74.92,32.57,72.5,27H60.88l-2.42,5.6H54.11L64.91,8.71h3.51L79.24,32.57Zm-12.6-8.95H71.1L66.71,13.4Zm28.56.23L98,32.57H93l-4.56-5.73-4.56,5.73h-5L86,23.85l-6.66-8.21h5l4.12,5.27,4.12-5.27h5Zm16.72,9a9.31,9.31,0,0,1-4.54-1.06,7.32,7.32,0,0,1-3-3.09A9.82,9.82,0,0,1,99,24,9.84,9.84,0,0,1,100,19.34a7.39,7.39,0,0,1,3-3.07,10.08,10.08,0,0,1,9,0,7.32,7.32,0,0,1,3,3.07A9.73,9.73,0,0,1,116.16,24a9.82,9.82,0,0,1-1.07,4.67,7.4,7.4,0,0,1-3,3.08A9.28,9.28,0,0,1,107.6,32.83Zm0-3.28a4,4,0,0,0,3.28-1.39A6.53,6.53,0,0,0,112,24a6.57,6.57,0,0,0-1.15-4.14,4.32,4.32,0,0,0-6.4,0A6.56,6.56,0,0,0,103.26,24a6.53,6.53,0,0,0,1.07,4.14,3.9,3.9,0,0,0,3.23,1.39ZM129.49,15.2q6.07,0,6.07,7V32.57h-4.19V22.38a4.48,4.48,0,0,0-.77-2.93,2.88,2.88,0,0,0-2.38-.92,4.05,4.05,0,0,0-3.08,1.22A4.45,4.45,0,0,0,124,23v9.6h-4.16V20.44a38.51,38.51,0,0,0-.27-4.8h3.93l.29,2.78A6.2,6.2,0,0,1,126.12,16a7,7,0,0,1,3.33-.84Zm26.67.44V32.57H152V29.86A5.3,5.3,0,0,1,149.82,32a6.64,6.64,0,0,1-3.27.79,7.16,7.16,0,0,1-3.93-1.07,7.06,7.06,0,0,1-2.64-3,10.38,10.38,0,0,1-.94-4.59,10.9,10.9,0,0,1,1-4.64,7.42,7.42,0,0,1,2.67-3.15,6.88,6.88,0,0,1,3.89-1.13,6.64,6.64,0,0,1,3.27.79,5.41,5.41,0,0,1,2.22,2.2V15.64Zm-8.53,13.87a3.92,3.92,0,0,0,3.2-1.44A6.52,6.52,0,0,0,152,24a6.52,6.52,0,0,0-1.14-4.11,4.26,4.26,0,0,0-6-.47,3.48,3.48,0,0,0-.47.47A6.59,6.59,0,0,0,143.19,24a6.17,6.17,0,0,0,1.15,4,4,4,0,0,0,3.34,1.49ZM166.05,18.8v7.57c0,2,.93,3,2.78,3a6,6,0,0,0,1.68-.27V32.4a8.14,8.14,0,0,1-2.68.4,5.81,5.81,0,0,1-4.43-1.61,6.39,6.39,0,0,1-1.54-4.64V18.8h-3.2V15.6h3.2V11.52l4.19-1.41v5.53h4.49v3.2Zm15,14a9.35,9.35,0,0,1-4.55-1.06,7.35,7.35,0,0,1-3-3.09A9.71,9.71,0,0,1,172.47,24a9.73,9.73,0,0,1,1.07-4.67,7.3,7.3,0,0,1,3-3.07,9.36,9.36,0,0,1,4.55-1.07,9.13,9.13,0,0,1,4.49,1.07,7.34,7.34,0,0,1,3,3.07A9.84,9.84,0,0,1,189.65,24a9.82,9.82,0,0,1-1.06,4.67,7.38,7.38,0,0,1-3,3.09A9.18,9.18,0,0,1,181.1,32.83Zm0-3.28a3.92,3.92,0,0,0,3.26-1.39A6.53,6.53,0,0,0,185.43,24a6.57,6.57,0,0,0-1.13-4.14,4.4,4.4,0,0,0-6.2-.28l-.28.28A6.56,6.56,0,0,0,176.68,24a6.42,6.42,0,0,0,1.13,4.14,3.91,3.91,0,0,0,3.26,1.39Zm21.33-14.31a4.81,4.81,0,0,1,1.68.27v3.82a5.77,5.77,0,0,0-2.21-.44,4.29,4.29,0,0,0-3.36,1.26,4.73,4.73,0,0,0-1.07,3.29v9.15h-4.15V20.44a36.59,36.59,0,0,0-.28-4.8H197l.33,3a5.07,5.07,0,0,1,2-2.52,5.81,5.81,0,0,1,3.06-.87Z" transform="translate(0)"></path><path class="cls-8" d="M209.19,12.56a5.1,5.1,0,1,1,5.11-5.08A5.09,5.09,0,0,1,209.19,12.56Zm4.48-5.11a4.47,4.47,0,1,0-4.46,4.48A4.46,4.46,0,0,0,213.67,7.45Z" transform="translate(0)"></path><path class="cls-8" d="M207.4,4.83c.84,0,1.67-.06,2.48,0A1.37,1.37,0,0,1,211.18,6a1.56,1.56,0,0,1-.82,1.77l-.12.08,1.21,2.26c-.34,0-.64,0-.93,0-.07,0-.16-.11-.2-.19q-.44-.81-.84-1.62a.37.37,0,0,0-.4-.25c-.24,0-.48,0-.75,0v2h-.93Zm.94.71V7.29a8.38,8.38,0,0,0,1.23,0,.77.77,0,0,0,.69-.92.77.77,0,0,0-.76-.81C209.12,5.52,208.74,5.54,208.34,5.54Z" transform="translate(0)"></path></svg> 