<svg xmlns="http://www.w3.org/2000/svg" width="108" height="58" viewBox="0 0 108 58" fill="none"><path d="M54.2897 0.79757C57.9121 0.799915 61.525 1.22014 65.0732 2.05182C65.9614 2.2497 66.038 2.36028 66.0406 3.39336C66.0747 5.31849 66.0116 7.24427 65.8517 9.16114C65.8134 9.56855 65.7445 9.70532 65.3617 9.61511C57.9042 7.86049 50.2122 7.84861 42.7506 9.58019C42.3244 9.68204 42.1916 9.64421 42.1406 9.0913C41.99 7.08234 41.9287 5.06599 41.9568 3.04997C41.9568 2.5087 42.1661 2.24388 42.6409 2.13039C46.4707 1.21172 50.3761 0.764878 54.2897 0.79757ZM63.1386 8.07277C62.5694 6.6381 61.99 5.37222 61.5587 4.04231C61.1861 2.87828 60.4076 2.47378 59.4939 2.29626C57.7959 2.00737 56.0626 2.15755 54.4224 2.73568C54.141 2.83178 53.8411 2.83178 53.5597 2.73568C51.9033 2.14872 50.1512 2.00141 48.4372 2.30499C47.6 2.47378 46.842 2.85209 46.4847 3.923C46.0865 5.12486 45.5633 6.27434 45.1064 7.45583C45.0426 7.62171 44.8895 7.78176 45.0018 8.03785C51.0107 6.95575 57.1318 6.96361 63.1386 8.06113V8.07277Z" fill="#80858C"></path><path d="M53.5501 29.2993C51.7609 28.1654 50.1383 26.7244 48.7405 25.0277C45.567 21.2239 43.724 16.6738 42.8714 11.5807C42.7975 11.1491 42.8419 10.9514 43.3026 10.8484C46.5612 10.1285 49.8684 9.72508 53.1879 9.64263C53.592 9.6287 53.5525 9.88767 53.5525 10.1773V29.2993H53.5501ZM52.8971 16.2283C52.902 15.6408 52.8041 15.0581 52.6089 14.5136C52.4137 13.9692 52.1252 13.4737 51.76 13.0557C51.3947 12.6377 50.9599 12.3055 50.4806 12.0782C50.0013 11.8509 49.487 11.7329 48.9672 11.7311H48.9056C48.1196 11.7327 47.3516 11.9976 46.6987 12.4922C46.0458 12.9868 45.5373 13.689 45.2373 14.51C44.9373 15.3311 44.8593 16.2342 45.0132 17.1053C45.167 17.9765 45.5459 18.7765 46.1018 19.4045C46.6578 20.0324 47.366 20.4601 48.1368 20.6334C48.9077 20.8068 49.7068 20.7181 50.4331 20.3785C51.1594 20.039 51.7804 19.4638 52.2177 18.7256C52.6549 17.9874 52.8888 17.1194 52.8897 16.231L52.8971 16.2283Z" fill="#80858C"></path><path d="M58.9185 20.831L56.9367 19.5243C56.7386 19.6544 56.8363 19.8495 56.8363 20.0051C56.8363 22.3838 56.8227 24.7625 56.8363 27.1384C56.8538 27.3104 56.8237 27.4841 56.7496 27.6389C56.6756 27.7937 56.5606 27.9233 56.4182 28.0123C55.7911 28.4479 55.1721 28.8948 54.4473 29.2993V17.748L56.7548 19.3008V13.5959L59.1493 15.2392V13.2367C59.1493 12.2241 59.1737 11.2116 59.1493 10.199C59.1493 9.71252 59.2905 9.57959 59.7357 9.66727C60.1273 9.76049 60.5285 9.80324 60.9302 9.79454C61.5356 9.7606 61.5953 10.0774 61.5872 10.5922C61.5627 12.6852 61.5872 14.7754 61.5872 16.9617C60.8026 16.4328 60.0615 15.9265 59.1873 15.3326V20.8169L58.9185 20.831Z" fill="#80858C"></path><path d="M54.434 39.9216C55.361 39.9216 56.2881 39.9044 57.2152 39.9216C57.6606 39.9216 57.7693 39.7004 57.7615 39.2695C57.746 38.2181 57.7615 37.1666 57.7331 36.1094C57.7046 35.0522 57.5699 34.9315 56.6739 34.762C56.4927 34.7276 56.2855 34.7391 56.3166 34.4403C56.3477 34.1415 56.5367 34.2248 56.6895 34.222H60.2579C60.4081 34.222 60.61 34.1616 60.6385 34.4259C60.667 34.6902 60.4702 34.7132 60.2863 34.7592C59.3386 34.943 59.2246 35.0666 59.2195 36.1525C59.2074 39.1058 59.2074 42.059 59.2195 45.0123C59.2195 46.0666 59.3463 46.1901 60.2553 46.3999C60.4184 46.4372 60.7162 46.3338 60.6929 46.7015C60.6644 47.1238 60.3718 46.9457 60.175 46.9371C59.046 46.8796 57.9178 46.8796 56.7905 46.9371C56.604 46.9371 56.358 47.0692 56.3192 46.7159C56.2803 46.3625 56.5289 46.4286 56.6895 46.3912C57.6424 46.1183 57.7253 46.0436 57.7434 44.9548C57.7693 43.7684 57.7434 42.5819 57.7693 41.3983C57.7693 40.9329 57.5958 40.7318 57.2048 40.7318H51.6968C51.3705 40.7318 51.109 40.8381 51.1194 41.3063C51.1478 42.5819 51.1194 43.8574 51.1763 45.1301C51.2229 46.1499 51.3369 46.2189 52.2484 46.4056C52.4271 46.443 52.7663 46.3137 52.7223 46.7274C52.6783 47.1411 52.3856 46.9457 52.2044 46.9371C51.0776 46.8739 49.9486 46.8796 48.8224 46.9543C48.6282 46.9543 48.3874 47.0635 48.3537 46.7216C48.3201 46.3797 48.6127 46.3941 48.7758 46.374C49.4698 46.2964 49.6796 45.8253 49.6796 45.1301V36.2042C49.6796 35.0953 49.5397 34.9574 48.5298 34.7534C48.3744 34.7247 48.1932 34.7276 48.1984 34.4661C48.2035 34.2047 48.3874 34.222 48.5453 34.222H52.2329C52.396 34.222 52.5721 34.222 52.5695 34.4805C52.5669 34.7391 52.3882 34.7304 52.2303 34.7678C51.2903 34.966 51.2359 34.9861 51.1945 36.0405C51.1375 37.1551 51.1686 38.2755 51.1556 39.3959C51.1556 39.755 51.2877 39.9216 51.6269 39.9159C52.5384 39.913 53.4862 39.9216 54.434 39.9216Z" fill="#80858C"></path><path d="M21.4838 41.0353H23.6959C24.1084 41.0353 24.2844 40.8719 24.266 40.3989C24.2292 39.4644 24.2292 38.527 24.2135 37.5895C24.2236 37.4828 24.2143 37.3748 24.1861 37.272C24.1579 37.1691 24.1113 37.0734 24.049 36.9902C23.9868 36.9071 23.91 36.8382 23.8233 36.7876C23.7365 36.7369 23.6415 36.7055 23.5435 36.6951C23.5042 36.6908 23.4646 36.6908 23.4253 36.6951C23.2598 36.6951 23.0076 36.7467 23.047 36.4085C23.0864 36.0702 23.3281 36.2021 23.491 36.2135C24.4106 36.2709 25.3325 36.2709 26.2521 36.2135C26.4308 36.2135 26.7145 36.0931 26.7329 36.4371C26.7513 36.7811 26.4702 36.6722 26.3205 36.6837C25.7582 36.7209 25.5323 37.0707 25.5323 37.6469V45.4874C25.5323 46.1152 25.816 46.4334 26.3861 46.4678C26.5569 46.4678 26.796 46.4276 26.775 46.7544C26.7539 47.0813 26.5122 46.9551 26.3467 46.9494C25.4068 46.8978 24.4651 46.8978 23.5251 46.9494C23.3649 46.9494 23.0733 47.1271 23.0549 46.7401C23.0391 46.4276 23.2887 46.4878 23.4542 46.4678C23.6665 46.4633 23.8685 46.3673 24.0162 46.2008C24.1639 46.0343 24.2452 45.8108 24.2423 45.5791C24.2423 45.5476 24.2423 45.5132 24.2423 45.4816C24.2423 44.3894 24.2423 43.2943 24.2712 42.2021C24.2712 41.8352 24.0795 41.7377 23.8036 41.7348H19.0721C18.7331 41.7348 18.6149 41.904 18.6228 42.2738C18.6412 43.323 18.6228 44.3722 18.6228 45.4272C18.6228 46.098 18.8855 46.4792 19.5344 46.4907C19.7 46.4907 19.9653 46.4362 19.9679 46.7258C19.9679 47.087 19.6763 46.9723 19.5003 46.9609C18.5376 46.9064 17.573 46.9064 16.6104 46.9609C16.458 46.9609 16.24 47.0383 16.2032 46.7946C16.1664 46.5509 16.3818 46.5079 16.5684 46.4706C16.6719 46.4655 16.7735 46.4381 16.8673 46.3901C16.9611 46.342 17.0454 46.2742 17.1152 46.1906C17.1849 46.107 17.2389 46.0092 17.274 45.9028C17.3091 45.7964 17.3247 45.6835 17.3197 45.5705C17.3197 45.5533 17.3197 45.5332 17.3197 45.516V37.7415C17.3197 37.0821 17.078 36.6722 16.4081 36.6894C16.2583 36.6894 16.0482 36.7238 16.0666 36.44C16.0849 36.1562 16.2872 36.2135 16.4396 36.2221C17.4607 36.2881 18.4845 36.2881 19.5055 36.2221C19.6605 36.2221 19.805 36.2479 19.805 36.4572C19.805 36.6665 19.6527 36.6951 19.5029 36.698C18.7909 36.698 18.6123 37.1825 18.6228 37.8447C18.6228 38.7047 18.6465 39.5877 18.6228 40.4563C18.607 40.9149 18.7909 41.0439 19.164 41.0296L21.4838 41.0353Z" fill="#80858C"></path><path d="M35.661 44.3497C35.6974 44.1835 35.7244 44.0146 35.742 43.8441C35.7301 41.9092 35.7967 39.9715 35.6587 38.0395C35.5777 36.9379 35.5611 36.9096 34.6469 36.6837C34.4946 36.6469 34.3232 36.6356 34.3565 36.4012C34.3898 36.1667 34.5446 36.2148 34.6731 36.2261C35.5244 36.2939 36.3785 36.2939 37.2298 36.2261C37.3488 36.2261 37.4679 36.2487 37.4845 36.4068C37.5012 36.565 37.4607 36.6554 37.3584 36.6611C36.1229 36.7458 36.3466 37.8757 36.3371 38.7569C36.3038 41.2991 36.3371 43.8158 36.3181 46.3467C36.3181 46.5586 36.468 46.8749 36.1919 46.9766C35.9539 47.0585 35.9062 46.7478 35.792 46.5925C33.8352 43.9128 31.876 41.2398 29.9144 38.5733C29.8686 38.5171 29.8193 38.4652 29.7668 38.418C29.6383 38.4942 29.6478 38.6185 29.6502 38.7202C29.6764 40.8952 29.5526 43.0758 29.7406 45.2479C29.8192 46.1433 29.8882 46.2224 30.65 46.3298C30.8024 46.3524 31.0285 46.2817 31.0095 46.5896C30.9904 46.8975 30.7595 46.793 30.6167 46.7874C29.839 46.7309 29.0591 46.7309 28.2814 46.7874C28.129 46.8015 27.9076 46.8636 27.8957 46.5699C27.8957 46.3241 28.0862 46.3326 28.229 46.3298C28.7622 46.3298 28.9574 45.9908 28.9932 45.375C29.1384 42.8922 29.0384 40.4065 29.055 37.9237C29.055 37.1949 28.7361 36.8588 28.0338 36.6893C27.8791 36.6526 27.6458 36.7147 27.6719 36.421C27.6981 36.1272 27.91 36.2204 28.0719 36.2374H28.1266C28.717 36.2374 29.3955 36.0538 29.8692 36.3362C30.3429 36.6187 30.5334 37.4096 30.9071 37.9208C32.4473 40.0308 34.009 42.1211 35.661 44.3497Z" fill="#80858C"></path><path d="M79.5933 36.1939H81.1054C81.2698 36.1939 81.4746 36.1593 81.5124 36.3954C81.5501 36.6315 81.3399 36.6632 81.1755 36.6689C80.5313 36.6833 80.2968 37.0749 80.2995 37.7141V40.5934C80.2995 40.7604 80.2429 40.9878 80.4396 41.0685C80.6364 41.1491 80.8412 40.9763 80.9787 40.8237C81.8484 39.9177 82.7163 39.0069 83.5824 38.0913C83.7926 37.8696 83.9894 37.6364 84.1942 37.4118C84.5042 37.072 84.7333 36.7524 84.0352 36.6546C84.0065 36.6531 83.9784 36.6456 83.9524 36.6325C83.9265 36.6194 83.9032 36.6009 83.8839 36.5782C83.8646 36.5554 83.8497 36.5289 83.8401 36.5C83.8304 36.4711 83.8262 36.4405 83.8277 36.4098C83.8263 36.3955 83.8263 36.381 83.8277 36.3666C83.8324 36.3136 83.8567 36.2648 83.8951 36.2308C83.9334 36.1968 83.9829 36.1804 84.0325 36.1852H84.0514C85.0146 36.2457 85.9803 36.2457 86.9435 36.1852C86.9718 36.1803 87.0007 36.1814 87.0287 36.1884C87.0566 36.1954 87.083 36.2083 87.1062 36.2262C87.1295 36.2441 87.1493 36.2667 87.1643 36.2928C87.1794 36.3189 87.1895 36.3479 87.1941 36.3781C87.1955 36.3915 87.1955 36.4051 87.1941 36.4185C87.1922 36.4753 87.1703 36.5294 87.1329 36.5699C87.0955 36.6104 87.0452 36.6344 86.992 36.6373C85.5392 36.8244 84.6524 37.9589 83.6579 38.9061C83.1565 39.3812 82.6848 39.8937 82.1835 40.3746C81.8897 40.6625 81.8682 40.9072 82.135 41.2383C83.4234 42.773 84.701 44.3191 85.992 45.8451C86.2813 46.2084 86.6907 46.4384 87.1348 46.4872C87.3019 46.5045 87.496 46.516 87.4691 46.7751C87.4421 47.0343 87.2669 46.9738 87.1241 46.9594C86.1816 46.8961 85.2364 46.8961 84.294 46.9594C84.1322 46.9594 83.9301 47.0256 83.8897 46.7723C83.8492 46.5189 84.046 46.4987 84.2158 46.4843C84.6578 46.444 84.6524 46.2482 84.3937 45.9401C83.2994 44.6387 82.2105 43.3344 81.1135 42.0359C80.9464 41.8372 80.7496 41.5838 80.4828 41.6731C80.1728 41.7796 80.2833 42.128 80.2806 42.3814V45.4104C80.2806 46.0726 80.5124 46.4872 81.1916 46.493C81.3722 46.493 81.6067 46.4642 81.5717 46.7809C81.5366 47.0976 81.321 46.9623 81.1782 46.9565C80.1906 46.8989 79.2008 46.8989 78.2133 46.9565C78.0597 46.9565 77.8332 47.0343 77.8063 46.7809C77.7793 46.5275 78.0111 46.493 78.1971 46.493C78.7362 46.4383 78.9437 46.0755 78.9599 45.5342C79.0336 42.9102 79.0336 40.2882 78.9599 37.6681C78.941 37.0202 78.6904 36.6574 78.0462 36.6603C77.8764 36.6603 77.6149 36.7064 77.6581 36.3724C77.6904 36.119 77.9114 36.1881 78.065 36.1852L79.5933 36.1939Z" fill="#80858C"></path><path d="M65.5797 46.9873C62.5966 46.9347 60.6552 44.6941 60.6949 41.3942C60.7273 38.7793 62.6613 36.0451 65.9724 36.1838C68.6522 36.2975 70.5614 38.5436 70.5116 41.6688C70.5163 43.0744 70.0203 44.4246 69.1327 45.4225C68.2452 46.4204 67.0387 46.9843 65.7785 46.9901L65.5797 46.9873ZM62.0995 41.2861C62.0717 42.5917 62.4202 43.8727 63.0938 44.9409C63.447 45.5172 63.9451 45.9642 64.5254 46.2257C65.1057 46.4872 65.7423 46.5515 66.3553 46.4106C67.6703 46.1693 68.4732 45.2126 68.8411 43.8178C69.2856 42.1637 69.1451 40.3824 68.4484 38.8403C67.454 36.5637 64.8836 35.9758 63.2678 37.6285C62.363 38.5713 62.1169 39.8219 62.1094 41.2861H62.0995Z" fill="#80858C"></path><path d="M11.1482 46.9898C8.263 46.9537 6.20996 44.6949 6.24959 41.6026C6.29416 38.3297 8.41902 36.1376 11.5072 36.1793C14.1398 36.2154 16.1111 38.5492 16.0665 41.5804C16.0195 44.7088 13.9169 47.0231 11.1482 46.9898ZM14.6153 41.8165C14.6306 40.5602 14.3125 39.3271 13.7015 38.2742C12.275 35.9709 9.12979 36.1765 8.13175 38.7048C7.23772 40.9747 7.47299 43.2251 8.85489 45.1811C10.3061 47.2398 13.169 46.7897 14.1819 44.4226C14.5069 43.6038 14.6595 42.7121 14.6277 41.8165H14.6153Z" fill="#80858C"></path><path d="M100.733 44.1859C100.733 42.8282 100.746 41.479 100.733 40.1326C100.733 39.389 100.673 38.6454 100.619 37.9017C100.552 36.9722 100.474 36.8905 99.6236 36.73C99.4525 36.699 99.2062 36.73 99.2399 36.4483C99.2736 36.1666 99.5199 36.254 99.6832 36.2652C100.529 36.323 101.378 36.323 102.224 36.2652C102.384 36.2652 102.594 36.2061 102.636 36.4201C102.693 36.7018 102.454 36.7018 102.275 36.7243C101.687 36.7807 101.472 37.1412 101.423 37.7637C101.277 39.603 101.373 41.4452 101.35 43.2873C101.337 44.338 101.366 45.3914 101.35 46.4449C101.35 46.6224 101.467 46.8702 101.236 46.9688C101.005 47.0674 100.938 46.7998 100.829 46.6618C98.7102 44.0178 96.5932 41.371 94.4778 38.7214C94.4001 38.6256 94.3249 38.5242 94.2679 38.4397C94.2099 38.4527 94.1586 38.4889 94.124 38.541C94.0894 38.5932 94.0742 38.6576 94.0812 38.7214C94.1097 40.848 93.9957 42.9747 94.1668 45.0985C94.2497 46.1351 94.2834 46.1773 95.2218 46.321C95.38 46.3435 95.577 46.321 95.5744 46.566C95.5718 46.8111 95.3748 46.7885 95.2141 46.7773C94.3086 46.7125 93.4002 46.7125 92.4947 46.7773C92.347 46.7914 92.1966 46.7773 92.1888 46.5716C92.1811 46.366 92.321 46.321 92.474 46.3266C93.1687 46.3491 93.3554 45.9041 93.3891 45.2422C93.5135 42.7888 93.4331 40.3326 93.4357 37.8764C93.4357 37.1919 93.0884 36.8793 92.3366 36.7074C92.1681 36.668 91.914 36.7272 91.9348 36.4427C91.9555 36.1582 92.194 36.2483 92.3677 36.2511C93.0132 36.2511 93.7572 36.0455 94.273 36.3272C94.7889 36.6089 95.0352 37.4145 95.4551 37.9384C97.0468 39.9101 98.6566 41.8818 100.266 43.8535C100.313 43.9462 100.38 44.025 100.462 44.083C100.543 44.1409 100.636 44.1763 100.733 44.1859Z" fill="#80858C"></path><path d="M3.25262 41.7305V36.5042C3.25262 35.1338 3.11311 34.9886 1.85479 34.7621C1.67698 34.7331 1.50738 34.7215 1.51285 34.4718C1.51832 34.2221 1.69066 34.2134 1.86846 34.2134H5.89237C6.07017 34.2134 6.24798 34.2134 6.24798 34.4776C6.24798 34.7418 6.06744 34.736 5.89784 34.7679C4.97324 34.9857 4.86382 35.0583 4.85288 36.0542C4.81732 38.859 4.82006 41.6637 4.80911 44.4743C4.82981 45.4469 4.76109 46.4194 4.60395 47.3778C4.21551 49.4393 2.52498 50.984 0.71956 50.9201C0.38036 50.9201 -0.00807862 50.9346 0.00012784 50.3946C-0.00133731 50.1838 0.0757743 49.9809 0.214646 49.8303C0.353519 49.6796 0.542885 49.5933 0.741445 49.5903H0.834451C1.108 49.6222 1.38155 49.7122 1.6551 49.7732C2.37179 49.9358 2.74929 49.7035 2.93257 48.9486C3.1625 47.8037 3.26895 46.6348 3.24989 45.4644C3.2663 44.2188 3.25262 42.9732 3.25262 41.7305Z" fill="#80858C"></path><path d="M73.0666 41.3809V45.2131C73.0666 46.192 73.2101 46.3504 74.1293 46.503C74.2887 46.5289 74.4906 46.503 74.4932 46.7564C74.4959 47.0098 74.294 46.9838 74.1319 46.9752C73.0797 46.9176 72.0254 46.9176 70.9732 46.9752C70.8271 46.9752 70.6119 47.0673 70.5774 46.7938C70.5428 46.5203 70.7421 46.5059 70.9068 46.5059C71.6134 46.4828 71.81 46.002 71.81 45.3398V37.8768C71.81 37.1628 71.5444 36.777 70.859 36.8C70.6943 36.8 70.4977 36.7827 70.5136 36.5322C70.5136 36.3451 70.6757 36.2962 70.8324 36.2904C72.3573 36.2098 73.8902 36.0399 75.4044 36.3969C76.7726 36.7194 77.5855 37.7329 77.6493 39.1293C77.713 40.5257 77.0064 41.591 75.6621 42.0805C75.2113 42.2445 74.7402 42.3339 74.2648 42.3454C74.1638 42.3454 74.0416 42.3627 73.9991 42.2245C73.9566 42.0863 74.0921 41.997 74.2063 41.9567C74.3205 41.9164 74.4082 41.9135 74.5065 41.879C75.8667 41.4212 76.4671 40.2321 76.1669 38.5995C75.9358 37.3356 74.8864 36.61 73.5289 36.7424C73.1463 36.7799 73.056 36.9699 73.0586 37.3499C73.0746 38.6917 73.0666 40.0363 73.0666 41.3809Z" fill="#80858C"></path><path d="M105.034 46.989C104.885 46.9936 104.736 46.9843 104.589 46.9612C103.132 46.828 102.593 46.1286 102.648 44.4383C102.648 44.3079 102.648 44.1608 102.773 44.1191C102.897 44.0775 103.012 44.1746 103.05 44.3467C103.151 44.7421 103.313 45.1128 103.529 45.4403C103.772 45.8418 104.113 46.1492 104.509 46.3225C104.905 46.4958 105.336 46.5268 105.747 46.4117C106.008 46.3697 106.254 46.2402 106.453 46.0391C106.651 45.8379 106.795 45.5739 106.867 45.2793C106.978 44.8971 106.995 44.4865 106.915 44.094C106.835 43.7015 106.662 43.3429 106.415 43.0589C106.003 42.5482 105.458 42.2457 104.962 41.8599C104.598 41.5989 104.256 41.2987 103.94 40.9634C103.223 40.1307 102.938 39.1455 103.256 38.0075C103.574 36.8696 104.402 36.3589 105.381 36.2034C106.069 36.1334 106.762 36.2125 107.425 36.4366C107.497 36.45 107.564 36.4921 107.612 36.5559C107.661 36.6196 107.69 36.7011 107.693 36.7863C107.757 37.2109 107.807 37.6384 107.855 38.0658C107.874 38.2379 107.901 38.4377 107.7 38.4821C107.499 38.5265 107.475 38.3267 107.415 38.1685C106.984 37.0028 106.501 36.6364 105.501 36.7058C105.241 36.7075 104.987 36.7908 104.765 36.9467C104.543 37.1026 104.362 37.3253 104.24 37.5912C104.119 37.8572 104.062 38.1563 104.075 38.4568C104.088 38.7574 104.172 39.0481 104.316 39.2981C104.549 39.7174 104.864 40.0673 105.235 40.3195C105.714 40.6692 106.192 40.9884 106.644 41.3658C107.827 42.3539 108.252 43.6917 107.855 45.0767C107.506 46.2979 106.47 47.014 105.034 46.989Z" fill="#80858C"></path><path d="M40.2909 46.9888C40.0956 46.994 39.9002 46.9838 39.7065 46.9583C38.0426 46.8111 37.4246 46.1115 37.4945 44.4594C37.4945 44.315 37.4638 44.1346 37.6903 44.1207C37.9168 44.1068 37.9196 44.2623 37.9699 44.3983C38.1074 44.8085 38.3155 45.1918 38.5851 45.5312C38.8804 45.9116 39.2828 46.1965 39.7413 46.3497C40.1998 46.5029 40.6937 46.5176 41.1606 46.3919C42.4162 46.1142 42.9223 44.6399 42.2065 43.4682C41.9106 43.0385 41.5217 42.6799 41.0683 42.4187C40.4867 42.0411 39.8854 41.6829 39.3374 41.2608C38.1908 40.3723 37.7854 39.1729 38.1852 38.0095C38.5851 36.8462 39.6757 36.1881 41.127 36.1826C41.3883 36.1733 41.6498 36.1807 41.91 36.2048C43.3082 36.3741 43.5152 36.5879 43.5599 37.9956C43.5599 38.1761 43.6746 38.4232 43.3921 38.4788C43.1097 38.5343 43.1125 38.2844 43.0398 38.1095C42.5588 36.9572 41.6723 36.4824 40.4979 36.7212C40.2821 36.7658 40.0773 36.8522 39.8952 36.9754C39.713 37.0987 39.5571 37.2563 39.4364 37.4394C39.3156 37.6225 39.2324 37.8274 39.1914 38.0424C39.1504 38.2574 39.1525 38.4783 39.1975 38.6926C39.2477 38.9156 39.3428 39.1262 39.4772 39.3117C39.7622 39.7228 40.1344 40.0668 40.5678 40.3196C41.155 40.6917 41.7562 41.0415 42.3183 41.4441C42.7024 41.6944 43.0267 42.0252 43.2682 42.4133C43.5098 42.8014 43.6628 43.2372 43.7165 43.6903C43.9262 45.695 42.528 47.0138 40.2909 46.9888Z" fill="#80858C"></path><path d="M90.0948 46.9755H87.9727C87.8029 46.9755 87.5634 47.0591 87.5543 46.7651C87.5543 46.549 87.721 46.5403 87.8878 46.5057C88.8518 46.2924 88.9761 46.1772 88.9822 45.2635C88.9963 42.7983 88.9963 40.3322 88.9822 37.8651C88.9822 36.9428 88.8154 36.8073 87.8605 36.6575C87.6816 36.6315 87.4331 36.6575 87.4755 36.3894C87.5179 36.1214 87.7514 36.1819 87.9333 36.1906C89.1093 36.2626 90.289 36.2626 91.465 36.1906C91.6439 36.1906 91.8925 36.1416 91.9288 36.3808C91.9743 36.7007 91.6802 36.669 91.4862 36.669C90.7162 36.669 90.4403 37.084 90.4373 37.7325V45.4682C90.4373 46.1426 90.7829 46.5086 91.5135 46.5201C91.6954 46.5201 91.9319 46.5201 91.9319 46.7709C91.9319 47.0216 91.6893 46.987 91.5074 46.9899L90.0948 46.9755Z" fill="#80858C"></path><path d="M64.275 18.4874V10.6245C64.8088 10.7524 65.3199 10.8694 65.8289 11C66.1744 11.087 66.0193 11.4353 65.9882 11.6611C65.7372 13.5261 65.3348 15.3503 64.7881 17.1026C64.6371 17.5706 64.5688 18.0984 64.2646 18.463L64.275 18.4874Z" fill="#80858C"></path><path d="M58.1294 57.6603C58.7483 57.4718 58.7174 56.8911 58.7055 56.2865C58.6888 55.2838 58.7055 54.2811 58.7055 53.2933C58.7055 52.4792 58.7055 52.4792 58.0176 52.0302C59.1101 51.9733 60.0598 51.683 60.9547 52.2457C61.6854 52.7067 61.6973 53.9907 60.9714 54.6223C60.6405 54.9216 60.631 55.0922 60.85 55.4664C61.326 56.2865 61.6759 57.2353 62.4804 57.6693C62.2606 57.7989 62.0132 57.8348 61.7756 57.7716C61.5381 57.7084 61.3234 57.5495 61.1642 57.3191C60.8055 56.8171 60.4918 56.2671 60.2288 55.6789C60.1074 55.4484 60.005 55.191 59.7527 55.167C59.5004 55.1431 59.2767 55.1521 59.3148 55.619C59.3291 55.8511 59.3291 56.0843 59.3148 56.3164C59.2981 56.8851 59.2505 57.4718 59.867 57.6723L58.1294 57.6603ZM59.2981 53.5148V54.4128C59.2981 54.6163 59.3172 54.76 59.5147 54.8138C59.7569 54.8983 60.0153 54.8704 60.2425 54.7353C60.4697 54.6001 60.6507 54.3666 60.7524 54.0775C60.8575 53.764 60.8641 53.412 60.7709 53.0926C60.6777 52.7732 60.4916 52.5101 60.2502 52.3564C59.6004 51.9703 59.2981 52.2038 59.2981 53.0868V53.5148Z" fill="#80858C"></path><path d="M29.753 57.802L26.1612 53.0259C26.1612 54.4572 26.0916 55.6825 26.2481 56.9106C26.3052 57.3549 26.7151 57.1371 26.9411 57.4565H25.2322C25.9376 57.2503 25.8084 56.5855 25.8134 56.0048V53.4991C25.8134 52.8487 25.955 52.1113 24.9912 52.0968C25.8705 51.7367 26.1959 51.879 26.6853 52.5584C27.5348 53.7401 28.424 54.8811 29.3928 56.1993C29.4226 54.8928 29.4325 53.7982 29.3779 52.7152C29.3506 52.1984 28.9581 52.2332 28.7047 51.9806H30.3466C29.6014 52.271 29.7604 52.9968 29.7554 53.6356C29.7455 54.9508 29.753 56.269 29.753 57.802Z" fill="#80858C"></path><path d="M52.7291 53.7456V55.6489C52.417 55.5393 52.5446 55.0399 52.2439 54.9272C51.5355 54.6714 51.2189 54.9546 51.2189 55.9321C51.2189 57.3817 51.8066 57.8964 52.8498 57.3909C53.1869 57.2264 53.2462 56.7483 53.4853 56.4773C53.688 57.2904 53.4375 57.802 52.8475 57.802C51.9114 57.802 50.9775 57.802 49.9844 57.7319C50.916 57.4579 50.6313 56.5138 50.654 55.7738C50.6768 55.0338 50.654 54.2085 50.654 53.4289C50.654 52.8533 50.7269 52.229 50.1484 51.9336C51.0898 51.8829 52.0327 51.8991 52.9728 51.9823C53.2735 52.025 53.1573 52.7102 53.0981 53.2187C52.843 52.0006 52.1414 52.2716 51.5264 52.2473C51.2987 52.2473 51.1939 52.3295 51.2098 52.6493C51.2258 52.969 51.2098 53.2187 51.2098 53.502C51.2098 54.5922 51.3875 54.7445 52.2075 54.5435C52.5651 54.4552 52.4467 53.9953 52.7291 53.7456Z" fill="#80858C"></path><path d="M21.4208 51.9048C20.8349 52.0916 20.8032 52.5768 20.8006 53.1283C20.8164 54.0415 20.7873 54.955 20.7135 55.8645C20.5762 57.2688 19.8319 57.8685 18.4488 57.7962C17.3772 57.7389 16.7834 57.0247 16.7358 55.6867C16.7068 54.8671 16.7358 54.0474 16.7358 53.2247C16.7358 52.6521 16.8177 52.0193 16.0654 51.9168H18.016C17.2241 52.1338 17.3772 52.851 17.3878 53.4688C17.3878 54.3337 17.306 55.2046 17.4907 56.0634C17.6755 56.9223 18.1136 57.3622 18.8659 57.3803C19.2092 57.4202 19.5527 57.3075 19.8251 57.0656C20.0974 56.8237 20.2776 56.4712 20.3281 56.0815C20.4899 54.9235 20.5015 53.7446 20.3624 52.5828C20.3228 52.0886 19.8952 52.2333 19.6603 51.9108L21.4208 51.9048Z" fill="#80858C"></path><path d="M57.1129 13.5736L54.7088 12.2013C54.5735 12.124 54.4443 12.052 54.4473 11.8795V9.9047C54.4473 9.63436 54.6457 9.63178 54.868 9.64723C55.4931 9.66525 56.1212 9.69615 56.7493 9.70387C57.0047 9.70387 57.1279 9.75279 57.1249 9.99996C57.1069 11.1405 57.1129 12.2914 57.1129 13.5736Z" fill="#80858C"></path><path d="M80.8571 56.8191C81.8149 56.751 81.7208 56.1683 81.7179 55.6259C81.7179 54.6622 81.7003 53.701 81.7179 52.7373C81.7179 52.3791 81.5916 52.2681 81.1715 52.263C80.4546 52.263 79.7965 52.2933 79.4763 53.0199C79.3382 52.5405 79.6232 52.2025 79.6173 51.9048C81.3384 52.046 83.0707 52.0562 84.7939 51.9351C84.7645 52.205 84.7234 52.5758 84.6822 52.9442C84.3033 52.1218 83.5071 52.263 82.7814 52.258C82.517 52.258 82.4201 52.3513 82.423 52.5733C82.423 53.754 82.4465 54.9321 82.423 56.1052C82.423 56.5795 82.8226 56.6426 83.2074 56.799L80.8571 56.8191Z" fill="#80858C"></path><path d="M90.6535 54.4178C90.9662 53.7869 91.2319 53.2599 91.4882 52.7251C91.6363 52.4188 91.8903 52.0657 91.3025 51.9126H92.8261C91.8503 52.3124 91.6716 53.234 91.2319 53.9375C90.9217 54.4183 90.7782 55.006 90.8275 55.5938C90.8675 56.113 90.6629 56.7854 91.4882 56.8191H89.586C89.7153 56.505 90.1621 56.7491 90.1856 56.3544C90.2208 55.7755 90.3313 55.1758 90.0939 54.6229C89.7882 53.9115 89.4331 53.2288 89.1322 52.5175C88.9911 52.1878 88.676 52.1696 88.3633 51.9048H90.2561C89.5507 52.1644 89.7858 52.5045 89.934 52.842L90.6535 54.4178Z" fill="#80858C"></path><path d="M44.1484 51.9048H45.5224C44.9376 52.1741 44.8079 52.9214 44.6013 53.5477C44.1836 54.8063 43.8076 56.0922 43.4075 57.3629C43.3591 57.5202 43.3767 57.7895 43.2074 57.8016C43.0382 57.8137 43.047 57.5474 43.0008 57.3841L41.8312 53.3298C41.6707 52.7731 41.5542 52.171 41.0596 51.9139H42.7326C41.9653 52.2164 42.2533 52.7035 42.3852 53.1604C42.6886 54.2012 42.9942 55.242 43.3613 56.4885C43.801 55.0393 44.1836 53.7867 44.5573 52.525C44.6892 52.0591 44.2825 52.2346 44.1484 51.9048Z" fill="#80858C"></path><path d="M68.5521 53.1358C68.3316 53.0718 68.3618 52.7779 68.2527 52.615C68.0983 52.3915 67.8819 52.2501 67.6474 52.2193C67.4129 52.1885 67.1778 52.2707 66.9899 52.4491C66.6626 52.8274 66.6812 53.4442 67.0804 53.8747C67.3669 54.1484 67.6652 54.4019 67.9741 54.6341C68.7262 55.2858 68.9397 56.2925 68.5033 57.0925C68.1273 57.7792 66.904 58.0497 66.326 57.5319C65.9709 57.2147 66.0707 56.7056 66.0498 56.2197C66.3191 56.275 66.2959 56.5601 66.3794 56.726C66.4813 56.9815 66.6451 57.19 66.8473 57.3217C67.0495 57.4534 67.2798 57.5015 67.5052 57.4591C67.6604 57.4466 67.8079 57.3694 67.924 57.2397C68.0401 57.11 68.1182 56.9353 68.1459 56.7434C68.1914 56.4746 68.1658 56.1944 68.0728 55.9456C67.9798 55.6967 67.8245 55.4926 67.6306 55.3644C67.3729 55.1578 67.1083 54.957 66.8646 54.7272C66.34 54.2297 66.145 53.5402 66.3214 52.8856C66.4862 52.2833 66.9783 51.9109 67.6259 51.9051C68.5103 51.8935 68.7517 52.2135 68.5521 53.1358Z" fill="#80858C"></path><path d="M64.2504 18.7018C64.1352 19.3547 63.6621 19.8642 63.2891 20.4095C62.813 21.111 62.3794 21.8381 61.6758 22.4192C61.654 22.4141 61.6309 22.4141 61.6091 22.4192C61.6091 20.9292 61.6091 19.4366 61.5879 17.9466C61.5879 17.4345 61.7638 17.4089 62.2369 17.6598C62.907 18.0157 63.4832 18.5021 64.2656 18.7018H64.2504Z" fill="#80858C"></path><path d="M61.5276 23.1817C61.547 23.1759 61.5675 23.1759 61.5869 23.1817C60.9748 24.3339 60.1038 25.2413 59.1465 26.3503V22.2397C59.1465 21.9517 59.1761 21.6636 58.9092 21.462L59.1788 21.436C59.222 21.8163 59.5564 21.8912 59.7856 22.0467C60.3599 22.4241 60.8696 22.9311 61.5276 23.1817Z" fill="#80858C"></path><path d="M34.8295 51.9048H36.5862C35.8418 52.078 36.0006 52.7062 35.9983 53.2387V55.4723C35.9983 56.0048 35.8039 56.6666 36.5957 56.8191H34.8105C35.5549 56.6796 35.4103 56.0591 35.4151 55.5266V53.231C35.4151 52.7114 35.5715 52.0832 34.8295 51.9048Z" fill="#80858C"></path><path d="M73.4227 51.9048H75.7365C74.7507 52.1115 74.9901 52.7523 74.987 53.2923V55.5867C74.987 56.4368 74.987 56.4367 75.8672 56.8191H73.4351C74.4739 56.5608 74.1473 55.8528 74.166 55.2689C74.1846 54.5247 74.166 53.7806 74.166 53.0365C74.166 52.5688 74.3713 51.9797 73.1895 52.096L73.4227 51.9048Z" fill="#80858C"></path><path d="M55.3389 6.24978C57.1466 5.59363 59.1021 5.38676 61.0185 5.64894C60.7622 4.98509 60.5264 4.37213 60.2804 3.74463C61.0493 3.85123 61.2338 3.96752 61.5004 4.54657C61.8156 5.23464 62.1283 5.92513 62.4794 6.69315C61.2874 6.49868 60.0803 6.39819 58.8707 6.39273H55.3619L55.3389 6.24978Z" fill="#80858C"></path><path d="M46.4131 6.69315C46.8111 5.85735 47.1577 5.09352 47.5377 4.34362C47.7328 3.96519 48.1924 3.94661 48.6598 3.74463L47.8895 5.6693C49.81 5.41453 51.7711 5.64764 53.5536 6.34258C51.1863 6.40295 48.8215 6.26829 46.4131 6.69315Z" fill="#80858C"></path><path d="M52.6131 17.1636C52.3604 17.5089 52.6131 18.4479 51.8549 18.4721C51.5863 18.4721 50.7586 18.6654 50.8912 17.7126C51.0587 16.5319 51.1882 16.4283 52.354 16.5733C52.6731 16.6009 52.7142 16.7425 52.6131 17.1636Z" fill="#80858C"></path><path d="M46.2404 16.5323C47.1963 16.5323 47.3047 16.6427 47.3047 17.7875C47.3047 18.5426 46.5941 18.2495 46.234 18.4771C46.0269 18.6116 45.4979 17.4909 45.5202 16.9013C45.5457 16.2254 46.0524 16.6944 46.2404 16.5323Z" fill="#80858C"></path><path d="M51.8997 15.5224C51.0844 15.5224 50.8105 15.3695 50.8901 14.8563C50.9379 14.5506 51.6481 14.5365 51.9156 14.5664C52.5876 14.6419 52.6099 15.0514 52.6577 15.3449C52.7214 15.7315 52.0781 15.3976 51.8997 15.5224Z" fill="#80858C"></path><path d="M46.2364 15.528C46.0637 15.4317 45.5424 15.7029 45.52 15.353C45.5009 15.045 46.0286 14.4903 46.2364 14.562C46.5915 14.681 47.3047 14.5253 47.3047 14.912C47.3015 15.479 47.1831 15.528 46.2364 15.528Z" fill="#80858C"></path><path d="M49.9361 17.4992C49.5187 17.5159 49.0473 17.4992 49.094 16.9338C49.1516 16.2729 49.839 16.6212 50.2492 16.564C50.4651 16.533 50.9689 16.4328 50.861 16.7859C50.7638 17.065 51.0085 17.566 49.9361 17.4992Z" fill="#80858C"></path><path d="M48.0869 16.5326C48.6234 16.5326 49.0718 16.4354 49.0902 16.9697C49.1122 17.5696 48.5536 17.4555 48.0501 17.4992C47.1828 17.5647 47.385 17.0887 47.3151 16.8167C47.2196 16.3189 47.8737 16.6249 48.0869 16.5326Z" fill="#80858C"></path><path d="M50.0936 15.5287C49.5922 15.5088 49.109 15.6511 49.0908 15.0793C49.0908 14.3926 49.7485 14.5923 50.2244 14.5599C51.0347 14.5049 50.8203 15.0019 50.8676 15.259C50.9584 15.7784 50.2862 15.3864 50.0936 15.5287Z" fill="#80858C"></path><path d="M48.0598 15.5262C47.8656 15.4068 47.2308 15.7551 47.313 15.2774C47.3578 15.0063 47.1188 14.4987 48.0187 14.5609C48.5191 14.5957 49.109 14.4564 49.0904 15.0809C49.068 15.6506 48.5751 15.5113 48.0598 15.5262Z" fill="#80858C"></path><path d="M51.7695 18.872C51.3357 19.6433 50.7526 20.0829 49.9844 20.4531C50.222 19.9556 50.3906 19.624 50.537 19.2962C50.9709 18.3051 50.9681 18.3013 51.7695 18.872Z" fill="#80858C"></path><path d="M46.4131 18.8331C46.9862 18.3669 47.4304 18.2423 47.6854 19.2954C47.8268 19.7077 47.9988 20.096 48.1982 20.4531C47.5024 20.1996 46.8781 19.6331 46.4131 18.8331Z" fill="#80858C"></path><path d="M49.9844 12.5894C50.7756 12.7755 51.3447 12.9854 51.7695 13.3953C51.2143 13.6528 50.7812 13.6706 50.5146 13.1676C50.3677 12.9617 50.1899 12.7679 49.9844 12.5894Z" fill="#80858C"></path><path d="M46.4131 13.4167C46.8787 13.0138 47.5017 12.7251 48.1982 12.5894C47.2972 13.6959 47.2972 13.6959 46.4131 13.4167Z" fill="#80858C"></path><path d="M49.9834 14.4542C49.0513 14.5624 49.0342 14.9994 49.1283 12.5894C49.5153 13.0876 49.81 13.7303 49.9834 14.4542Z" fill="#80858C"></path><path d="M49.1926 19.4703C48.9964 18.4353 48.9992 18.4353 49.9834 18.5217C49.8497 18.889 49.5254 19.1462 49.1926 19.4703Z" fill="#80858C"></path><path d="M49.0879 12.6545V14.0219C49.0879 14.2545 49.1336 14.5754 48.8626 14.5382C48.6585 14.5103 48.4088 14.6591 48.2535 14.394C48.0982 14.1289 48.3114 13.9289 48.3905 13.7242C48.5519 13.3289 48.7468 12.9661 48.9265 12.5894L49.0879 12.6545Z" fill="#80858C"></path><path d="M49.0002 19.4703C48.6647 19.2177 48.3932 18.9241 48.1982 18.6029C49.1236 18.3452 49.2007 18.4707 49.0002 19.4703Z" fill="#80858C"></path></svg>