<svg xmlns="http://www.w3.org/2000/svg" width="59" height="56" viewBox="0 0 59 56" fill="none"><path d="M42.9134 54.4674C57.1667 49.4995 62.5949 33.5523 55.0112 18.9217C47.4275 4.29113 29.7323 -3.50858 15.5128 1.53388C1.29343 6.57635 -4.15735 22.4614 3.41505 37.0796C10.9875 51.6978 28.694 59.5099 42.9134 54.4674Z" fill="white"></path><path d="M42.9134 54.4674C57.1667 49.4995 62.5949 33.5523 55.0112 18.9217C47.4275 4.29113 29.7323 -3.50858 15.5128 1.53388C1.29343 6.57635 -4.15735 22.4614 3.41505 37.0796C10.9875 51.6978 28.694 59.5099 42.9134 54.4674Z" fill="white"></path><path d="M32.3152 33.0179C31.7661 34.809 30.6899 36.3475 29.2569 37.3897C27.7956 38.5369 26.0523 39.1691 24.2575 39.2029H17.3961V38.9918L17.4977 38.6564L18.8519 33.6885L18.9084 33.4898V33.378H23.4224C23.8758 33.4121 24.3229 33.247 24.6657 32.9186C25.0084 32.5903 25.2188 32.1257 25.2506 31.6268C25.2495 31.2386 25.1213 30.8638 24.8895 30.5711L24.7654 30.4097L21.4814 26.0006L21.3685 25.864C20.9558 25.2448 20.6867 24.5241 20.5844 23.7644C20.4821 23.0047 20.5499 22.229 20.7817 21.5046C21.3294 19.7094 22.4056 18.1666 23.84 17.1205C25.3014 15.9842 27.0391 15.3569 28.8281 15.3196H35.6895L35.6331 15.5183L35.5315 15.8661L34.1773 20.834V21.0327V21.1445H29.6632C29.2094 21.1171 28.764 21.2863 28.4222 21.6159C28.0805 21.9456 27.8697 22.4094 27.835 22.9081C27.8361 23.2963 27.9643 23.6712 28.1961 23.9638L28.5008 24.3488L31.6042 28.5219L31.7058 28.6461C32.1223 29.268 32.3946 29.9925 32.4988 30.7565C32.603 31.5206 32.5361 32.3012 32.3039 33.0303L32.3152 33.0179ZM53.4073 19.4926C52.7828 18.2766 52.0814 17.1104 51.3082 16.0027L49.9766 20.834L49.9202 21.0327V21.1445H45.4061C44.9562 21.1272 44.5178 21.3026 44.1831 21.6339C43.8484 21.9652 43.6436 22.4264 43.6117 22.9205C43.6129 23.3088 43.7411 23.6835 43.9728 23.9762L44.2663 24.3612L47.3358 28.5095L47.4374 28.6461C47.8512 29.267 48.1218 29.9893 48.226 30.7508C48.3302 31.5123 48.2648 32.2903 48.0355 33.0179C47.4859 34.8122 46.405 36.3516 44.9659 37.3897C43.5094 38.538 41.7694 39.1705 39.9779 39.2029H33.1165L33.1729 38.9918L33.2632 38.6564L34.6287 33.6885L34.6851 33.4898V33.378H39.1992C39.6518 33.4088 40.0973 33.2424 40.4394 32.9148C40.7815 32.5871 40.9927 32.1245 41.0274 31.6268C41.0263 31.2386 40.8981 30.8638 40.6663 30.5711L40.5647 30.3724L37.2807 25.9634L37.1791 25.8268C36.7672 25.2047 36.4986 24.4819 36.3964 23.7204C36.2942 22.959 36.3614 22.1816 36.5923 21.455C37.1336 19.6593 38.2116 18.1182 39.6506 17.0832C41.1072 15.9348 42.8471 15.3023 44.6387 15.2699H50.8343C47.4863 10.8505 43.2595 7.33776 38.4809 5.00326C33.7023 2.66877 28.4998 1.57508 23.2757 1.80681L21.6845 7.61928V7.81804V7.92978H14.7215V7.73109L14.8231 7.3833L15.9516 3.30964C2.82691 8.12853 -2.10475 22.9206 4.93723 36.5327C5.30965 37.253 5.70465 37.9486 6.1222 38.6316L12.4419 15.6797L12.4984 15.4811V15.3692H19.3711V15.568L19.2808 15.9157L12.9272 38.9794V39.1781V39.2899H6.64131C14.4281 51.2253 29.6858 57.2614 42.1334 52.9517C55.5177 48.257 60.596 33.3284 53.4863 19.6045" fill="#80858C"></path></svg>