<svg xmlns="http://www.w3.org/2000/svg" width="69" height="33" viewBox="0 0 69 33" fill="none"><path d="M0 0.819784V8.03081H5.7623L0 14.2324V31.9716H6.70026V0.819784H0ZM55.3035 20.0457H61.3244V25.6836C60.5391 25.9245 59.3611 26.0208 58.3139 26.0208C52.0747 26.0208 48.3225 22.3105 48.3225 16.0945C48.3225 10.2156 51.8129 6.36065 57.1359 6.36065C60.2773 6.36065 62.328 7.5172 63.8987 9.15549L68.3054 4.2405C65.5567 1.30105 61.7608 0 57.1795 0C48.017 0 41.6905 6.64976 41.6905 16.239C41.6905 25.9728 48.1043 32.3815 58.0085 32.3815C59.4047 32.3815 61.4554 32.1887 62.7643 31.8997L67.5638 26.5991V14.3597H60.4519L55.3035 20.0457ZM27.8485 6.50526C30.6619 6.50526 32.5663 7.46896 34.2544 9.29999L38.7126 4.33687C35.8126 1.34918 32.1768 0 27.8052 0C18.8889 0 12.656 6.698 12.656 16.239C12.656 25.7318 18.8889 32.3815 27.8918 32.3815C31.9604 32.3815 35.3365 31.0805 36.8514 29.9241V22.937C34.7738 24.6235 31.6141 25.8763 28.3246 25.8763C22.8276 25.8763 19.2351 22.2141 19.2351 16.239C19.2351 10.3602 22.6112 6.50526 27.8485 6.50526Z" fill="#80858C"></path></svg>