<svg xmlns="http://www.w3.org/2000/svg" width="85" height="24" viewBox="0 0 85 24" fill="none"><path d="M38.9602 11.3417C42.8344 9.65897 42.9491 2.60616 38.9602 0.948651C37.7671 0.367527 36.4839 0.0628911 35.186 0.0525858C31.2174 -0.00210343 27.2729 0.00420687 23.2988 0V23.4617C27.2489 23.5774 31.2359 23.4827 35.1971 23.4407C36.9322 23.4416 38.6217 22.809 40.0167 21.6359C43.2859 18.7416 42.4329 13.3968 38.9602 11.3417ZM35.371 18.0727C33.1638 18.0916 30.9565 18.0727 28.7493 18.0727C28.4959 18.0727 28.3701 18.0096 28.3793 17.6941C28.3793 16.5162 28.3793 15.3382 28.3793 14.0783C30.7641 14.0783 32.9935 14.0783 35.3488 14.1098C37.7206 14.0993 37.6281 17.9696 35.371 18.0622V18.0727ZM35.556 8.97956C33.1897 9.01742 30.8233 8.99218 28.3978 8.99218V5.13028C30.7438 5.0188 33.0953 5.11345 35.445 5.08821C36.4052 5.08821 37.1471 5.87489 37.1786 6.89085C37.21 7.9615 36.4959 8.95222 35.5578 8.96904L35.556 8.97956Z" fill="#80858C"></path><path d="M71.6345 14.6152C71.6235 14.1343 71.7815 14.031 72.1637 14.0331C75.9419 14.0542 79.698 14.0331 83.4817 14.0331V8.89986H71.6437C71.6437 7.91076 71.6437 6.94485 71.6437 5.97894C71.6437 4.95819 71.5481 5.06153 72.421 5.06153C76.5397 5.06153 80.656 5.06153 84.7698 5.06153V0H66.6582V23.5171H84.779V18.2046H71.6437C71.6437 16.9751 71.6621 15.7941 71.6345 14.6152Z" fill="#80858C"></path><path d="M60.6552 0.976016C59.3327 0.27826 57.924 0.0379435 56.4873 0.0231873C52.5421 -0.0147572 48.6043 0.00632505 44.6553 0.00210899V23.5171H49.7061C49.7061 20.5301 49.7155 17.5641 49.7061 14.5791C49.7061 14.128 49.8221 13.9762 50.2355 13.9825C59.0277 13.7717 58.3917 13.9699 58.3281 23.5045H63.2854C63.4051 20.8357 63.306 18.1248 63.2966 15.4434C63.1601 13.4998 61.946 12.0959 60.3035 11.3559C64.318 9.72433 64.4826 2.87535 60.6552 0.976016ZM57.1122 8.91274C54.6803 8.95911 52.2315 8.9275 49.751 8.9275V5.1204H55.0544C56.3845 5.09932 58.547 4.8063 58.6368 6.87428C58.6779 7.93251 58.0269 8.89377 57.1122 8.91274Z" fill="#80858C"></path><path d="M10.5482 5.41289C13.5899 5.26991 16.6449 5.28252 19.6905 5.29724C19.8172 5.29724 20.0423 5.08697 20.0442 4.97132C20.0688 3.34799 20.0612 1.72256 20.0612 0.0529678C16.9117 -0.0584783 13.7545 0.0382485 10.603 0.0529678C8.94026 0.0824064 7.27939 0.338943 5.8058 1.24313C2.0225 3.55616 -0.0299363 7.09089 0.000330014 11.9672C0.0268131 16.1832 1.79361 19.3079 4.93375 21.5347C9.49451 24.4786 15.0181 23.1749 20.0499 23.5008V17.9495C16.4955 17.897 12.9335 18.1598 9.43587 17.571C2.41407 15.668 4.57622 5.30355 10.5482 5.41289Z" fill="#80858C"></path></svg>