<svg xmlns="http://www.w3.org/2000/svg" width="74" height="57" viewBox="0 0 74 57" fill="none"><path d="M7.78945 31.1279L6.62106 29.4796L6.29651 27.7679L7.01054 26.4366L16.1632 16.8002L26.8089 6.27626L28.2368 5.76917H29.4703L30.8984 6.27626L32.5211 7.16394L36.0912 3.61363L32.1316 1.07775L29.4703 0H26.8089L24.1473 1.39473L12.4633 12.6794L0.778944 24.281L0 26.4366V29.4796L0.778944 32.2057L5.32281 36.0729L7.78945 31.1279Z" fill="#80858C"></path><path d="M10.0611 33.6639L16.4224 39.4965L18.4347 38.2918L20.3173 36.9605L22.7188 35.1855L24.7313 33.4104L26.6786 31.5085L25.8671 29.6382L25.0558 27.768L24.7313 25.9294L24.4715 23.8375V21.6819L24.7313 19.5263L26.0944 17.3075L28.561 14.7717L32.0663 11.792L35.312 9.12938L37.9084 6.65683L40.5698 3.36019L42.9066 0.126953L43.361 1.58508L43.6856 3.55038L44.0102 5.57904L44.205 7.35421L44.3996 9.12938V11.5383V13.3769L44.205 15.0887L44.0102 17.561L43.8155 19.5263L43.361 21.2063L42.9066 22.8864L42.3874 24.3446L41.5434 25.6125L40.6347 27.1973L39.3365 28.7824L37.1944 30.6208L34.7926 32.2691L32.7803 32.9665L30.6382 33.4104L32.7803 29.6065L33.5599 28.2751L34.3395 26.7537L34.7926 25.6125L35.312 24.3446L35.8312 22.4427L36.0908 21.2381L36.3506 19.7801V18.195V16.4834L35.312 19.5263L34.7926 21.048L34.3395 22.4427L33.754 24.0276L33.1698 25.6125L32.4558 27.1973L31.4821 29.0994L30.6382 30.6208L27.7822 35.1855L24.4715 39.4965L22.3943 41.5252L20.3173 43.5538L16.1628 46.8505L7.75 39.3062L10.0611 33.6639Z" fill="#80858C"></path><path d="M22.0457 45.519L26.3298 49.6397L27.3684 50.6541L28.7965 50.9711L30.1597 50.3371L34.6387 46.3431L43.7913 37.4359L51.0615 30.4305L51.6457 29.3528V28.0849L51.0615 26.7535L46.7774 22.506L47.2316 15.342L54.4369 22.506L56.3842 24.7248L57.3581 26.7535L57.7476 28.7188L57.3581 30.8742L56.3842 32.5227L45.1544 43.4269L33.3404 54.8384L31.0686 56.1697L29.3159 56.7402H27.3684L25.551 56.1697L18.0469 48.9423L22.0457 45.519Z" fill="#80858C"></path><path d="M27.9997 46.003L29.6196 44.4706L31.5791 46.4463C31.4504 46.6944 31.2818 46.9576 31.0734 47.2357C30.8634 47.5122 30.6214 47.7801 30.3476 48.0391C29.9864 48.3808 29.6018 48.6118 29.1937 48.7321C28.7858 48.8525 28.3672 48.8452 27.9379 48.7103C27.5071 48.5735 27.0795 48.2912 26.6551 47.8633C26.2738 47.4788 26.0201 47.0759 25.8937 46.6542C25.7659 46.2309 25.7727 45.8049 25.9146 45.3759C26.0563 44.9436 26.3403 44.5258 26.7666 44.1226C27.001 43.9008 27.2451 43.7122 27.4987 43.5563C27.7523 43.4007 27.9901 43.2826 28.2122 43.2021L28.6621 44.2829C28.4622 44.3456 28.2739 44.4299 28.0969 44.5359C27.9182 44.64 27.7451 44.7714 27.5773 44.9302C27.3532 45.1423 27.2216 45.3623 27.1824 45.5906C27.145 45.817 27.1777 46.0423 27.2802 46.2659C27.381 46.4881 27.53 46.6986 27.7273 46.8975C27.9527 47.1248 28.1759 47.2862 28.3969 47.3819C28.6178 47.4741 28.8322 47.5014 29.04 47.4634C29.2479 47.4222 29.4426 47.3157 29.6241 47.1441C29.684 47.0874 29.7525 47.0145 29.8298 46.9252C29.9089 46.8343 29.9648 46.7618 29.9977 46.7081L29.4281 46.1339L28.7582 46.7679L27.9997 46.003Z" fill="#80858C"></path><path d="M34.9216 43.6151L34.0553 43.1029L32.8359 44.2566L33.3273 45.1234L32.2133 46.1773L29.7871 41.3383L31.1399 40.0583L36.0306 42.5659L34.9216 43.6151ZM33.039 42.4898L32.2805 42.041C32.1988 41.9921 32.0819 41.9228 31.93 41.8332C31.7765 41.742 31.6197 41.6474 31.4594 41.5494C31.2993 41.4482 31.1692 41.3638 31.0694 41.2966C31.1368 41.3946 31.2173 41.5193 31.3109 41.6705C31.4046 41.8185 31.4957 41.9672 31.5843 42.1166C31.6745 42.2645 31.7483 42.3892 31.8056 42.4904L32.2407 43.2452L33.039 42.4898Z" fill="#80858C"></path><path d="M38.7741 39.9719L36.5457 42.0801L32.9102 38.4145L35.1385 36.3064L35.9267 37.1013L34.7124 38.25L35.2843 38.8266L36.4087 37.7629L37.1971 38.5577L36.0727 39.6215L36.759 40.3134L37.9733 39.1647L38.7741 39.9719Z" fill="#80858C"></path><path d="M40.8269 34.3263C41.2496 34.7525 41.5197 35.1837 41.6374 35.6201C41.7549 36.0564 41.7361 36.4856 41.5811 36.9078C41.4259 37.3267 41.149 37.7247 40.7503 38.102L39.536 39.2507L35.9004 35.5852L37.1993 34.3564C37.6031 33.9741 38.0127 33.718 38.4275 33.5879C38.8426 33.4577 39.252 33.4542 39.6561 33.5774C40.0619 33.699 40.4522 33.9485 40.8269 34.3263ZM39.8091 35.3572C39.5887 35.1348 39.3755 34.9801 39.1696 34.893C38.9638 34.8026 38.7645 34.7789 38.5717 34.822C38.3772 34.8635 38.1876 34.9716 38.0028 35.1463L37.7077 35.4257L39.7443 37.479L39.9702 37.2654C40.2782 36.9739 40.418 36.6733 40.3893 36.3635C40.3589 36.052 40.1656 35.7165 39.8091 35.3572Z" fill="#80858C"></path><path d="M51.6381 43.3226V40.1279H50.8906V39.5596H53.1771V40.1279H52.4297V43.3226H51.6381Z" fill="#80858C"></path><path d="M53.4883 43.3226V39.5596H54.2799V41.116H54.8954V39.5596H55.6869V43.3226H54.8954V41.6843H54.2799V43.3226H53.4883Z" fill="#80858C"></path><path d="M56.2734 43.3226V39.5596H58.0835V40.1279H57.0648V41.116H57.7978V41.7201H57.0648V42.7543H58.0835V43.3226H56.2734Z" fill="#80858C"></path><path d="M59.6523 43.3226V39.5596H61.5358V40.1279H60.4439V41.116H61.1767V41.6843H60.4439V43.3226H59.6523Z" fill="#80858C"></path><path d="M62.9032 43.3635C62.5904 43.3635 62.34 43.2909 62.1519 43.1458C61.9638 43.0008 61.8625 42.8021 61.8477 42.5495V39.5596H62.6392V42.5495C62.6392 42.6347 62.6625 42.7022 62.7089 42.7517C62.7552 42.8012 62.82 42.8259 62.9032 42.8259C62.9861 42.8259 63.0509 42.8012 63.0972 42.7517C63.1436 42.7022 63.1669 42.6347 63.1669 42.5495V39.5596H63.9585V42.5495C63.9511 42.7167 63.9035 42.8617 63.8154 42.9847C63.7276 43.1057 63.6054 43.1996 63.449 43.2661C63.2951 43.331 63.1132 43.3635 62.9032 43.3635Z" fill="#80858C"></path><path d="M65.0092 43.3226V40.1279H64.2617V39.5596H66.5482V40.1279H65.8008V43.3226H65.0092Z" fill="#80858C"></path><path d="M67.9069 43.3635C67.5941 43.3635 67.3437 43.2909 67.1557 43.1458C66.9676 43.0008 66.8662 42.8021 66.8516 42.5495V39.5596H67.643V42.5495C67.643 42.6347 67.6662 42.7022 67.7126 42.7517C67.7591 42.8012 67.8237 42.8259 67.9069 42.8259C67.9898 42.8259 68.0546 42.8012 68.1012 42.7517C68.1475 42.7022 68.1706 42.6347 68.1706 42.5495V39.5596H68.9622V42.5495C68.9549 42.7167 68.9072 42.8617 68.8193 42.9847C68.7313 43.1057 68.6091 43.1996 68.4529 43.2661C68.299 43.331 68.1169 43.3635 67.9069 43.3635Z" fill="#80858C"></path><path d="M69.541 43.3226V39.5596H70.3324C70.5573 39.5596 70.7538 39.5827 70.9224 39.6287C71.0909 39.673 71.2315 39.7405 71.3438 39.8311C71.4562 39.9215 71.5405 40.0349 71.5966 40.1715C71.6528 40.3063 71.6809 40.4641 71.6809 40.6451C71.6809 40.749 71.6712 40.8464 71.6516 40.9367C71.6321 41.0255 71.604 41.1067 71.5674 41.18C71.5308 41.2517 71.4844 41.3148 71.4281 41.3694C71.3744 41.4224 71.3121 41.4658 71.2413 41.4999L71.747 43.3226H70.9554L70.5451 41.7355H70.3324V43.3226H69.541ZM70.3324 41.2235C70.4351 41.2235 70.5229 41.2125 70.5963 41.1903C70.6695 41.1681 70.7294 41.1347 70.7758 41.0904C70.8248 41.0444 70.8601 40.9862 70.882 40.9164C70.9066 40.8464 70.9188 40.7628 70.9188 40.6654C70.9188 40.5358 70.898 40.43 70.8565 40.3481C70.815 40.2661 70.7514 40.2056 70.666 40.1664C70.5804 40.1272 70.4692 40.1074 70.3324 40.1074V41.2235Z" fill="#80858C"></path><path d="M72.1895 43.3226V39.5596H73.9996V40.1279H72.981V41.116H73.7139V41.7201H72.981V42.7543H73.9996V43.3226H72.1895Z" fill="#80858C"></path><path d="M45.1919 49.4496C44.8798 49.4496 44.6299 49.3754 44.4422 49.2272C44.2545 49.0789 44.1533 48.8756 44.1387 48.6175V46.3512C44.1509 46.0947 44.2521 45.8923 44.4422 45.744C44.6324 45.594 44.8822 45.519 45.1919 45.519C45.5039 45.519 45.7551 45.594 45.9452 45.744C46.1354 45.8941 46.2352 46.0965 46.245 46.3512V48.6175C46.2352 48.8738 46.1354 49.0771 45.9452 49.2272C45.7551 49.3754 45.5039 49.4496 45.1919 49.4496ZM45.1919 48.9C45.2747 48.9 45.3393 48.8747 45.3856 48.8241C45.432 48.7735 45.4551 48.7046 45.4551 48.6175V46.3512C45.4551 46.2623 45.432 46.1933 45.3856 46.1444C45.3393 46.0938 45.2747 46.0685 45.1919 46.0685C45.1089 46.0685 45.0444 46.0938 44.998 46.1444C44.9516 46.1933 44.9286 46.2623 44.9286 46.3512V48.6175C44.9286 48.7046 44.9516 48.7735 44.998 48.8241C45.0444 48.8747 45.1089 48.9 45.1919 48.9Z" fill="#80858C"></path><path d="M46.7773 49.4078V45.561H48.6569V46.142H47.5672V47.1521H48.2986V47.7331H47.5672V49.4078H46.7773Z" fill="#80858C"></path><path d="M50.1055 49.4078V45.561H51.912V46.142H50.8954V47.1521H51.6269V47.7698H50.8954V48.827H51.912V49.4078H50.1055Z" fill="#80858C"></path><path d="M52.3477 49.4078V45.561H53.0497L53.8178 47.5656L53.8835 47.7436H53.9274V47.5656V45.561H54.6514V49.4078H53.9494L53.1815 47.4033L53.1156 47.2255H53.0717V47.4033V49.4078H52.3477Z" fill="#80858C"></path><path d="M55.2344 49.4078V45.561H57.0409V46.142H56.0243V47.1521H56.7556V47.7698H56.0243V48.827H57.0409V49.4078H55.2344Z" fill="#80858C"></path><path d="M57.4766 49.4078V45.561H58.2665C58.4908 45.561 58.6869 45.5845 58.8551 45.6316C59.0235 45.6771 59.1635 45.746 59.2758 45.8384C59.3878 45.9308 59.4719 46.0469 59.5281 46.1866C59.5842 46.3242 59.6122 46.4857 59.6122 46.6705C59.6122 46.7771 59.6024 46.8764 59.5829 46.969C59.5633 47.0598 59.5354 47.1426 59.4988 47.2176C59.4622 47.2907 59.416 47.3555 59.3599 47.4112C59.3062 47.4653 59.2441 47.5098 59.1733 47.5447L59.678 49.4078H58.8882L58.4786 47.7854H58.2665V49.4078H57.4766ZM58.2665 47.262C58.3688 47.262 58.4566 47.2508 58.5298 47.228C58.6028 47.2053 58.6625 47.1714 58.7089 47.1259C58.7577 47.0788 58.793 47.0196 58.8149 46.9479C58.8393 46.8764 58.8515 46.791 58.8515 46.6916C58.8515 46.5589 58.8309 46.4507 58.7894 46.3671C58.7479 46.2834 58.6845 46.2214 58.5993 46.1812C58.5139 46.1411 58.4029 46.1211 58.2665 46.1211V47.262Z" fill="#80858C"></path><path d="M60.9981 49.4496C60.808 49.4496 60.6422 49.4148 60.5009 49.3449C60.3593 49.2734 60.2497 49.1757 60.1716 49.0518C60.0962 48.9262 60.062 48.7814 60.0693 48.6175V46.3512C60.0815 46.0947 60.1827 45.8923 60.3729 45.744C60.563 45.594 60.8129 45.519 61.1224 45.519C61.4346 45.519 61.6857 45.594 61.8759 45.744C62.066 45.8941 62.1659 46.0965 62.1756 46.3512V46.9426H61.3857V46.3512C61.3857 46.2623 61.3627 46.1933 61.3163 46.1444C61.2699 46.0938 61.2054 46.0685 61.1224 46.0685C61.0396 46.0685 60.975 46.0938 60.9287 46.1444C60.8823 46.1933 60.8592 46.2623 60.8592 46.3512V48.6646C60.8592 48.7517 60.8823 48.8206 60.9287 48.8712C60.975 48.9218 61.0396 48.9471 61.1224 48.9471C61.2054 48.9471 61.2699 48.9218 61.3163 48.8712C61.3627 48.8206 61.3857 48.7517 61.3857 48.6646V47.9685H61.0713V47.4922H62.1756V49.4076H61.7075L61.6125 49.2245C61.5222 49.3048 61.4297 49.3623 61.3345 49.3972C61.2395 49.4322 61.1273 49.4496 60.9981 49.4496Z" fill="#80858C"></path><path d="M63.3182 49.4078V47.7698L62.5137 45.561H63.2889L63.6839 46.791L63.7058 46.8277H63.7205L63.7424 46.791L64.1374 45.561H64.9126L64.1081 47.7698V49.4078H63.3182Z" fill="#80858C"></path><path d="M39.0781 55.6218V51.8992H39.868V55.6218H39.0781Z" fill="#80858C"></path><path d="M40.457 55.6218V51.8992H41.1593L41.9272 53.839L41.9931 54.0113H42.0368V53.839V51.8992H42.761V55.6218H42.0588L41.2908 53.682L41.225 53.5097H41.181V53.682V55.6218H40.457Z" fill="#80858C"></path><path d="M43.8087 55.6218V52.4613H43.0625V51.8992H45.3447V52.4613H44.5985V55.6218H43.8087Z" fill="#80858C"></path><path d="M45.6562 55.6218V51.8992H47.463V52.4613H46.4463V53.439H47.1777V54.0366H46.4463V55.0596H47.463V55.6218H45.6562Z" fill="#80858C"></path><path d="M47.9004 55.6218V51.8992H48.6903V55.1153H49.7362V55.6218H47.9004Z" fill="#80858C"></path><path d="M50.0547 55.6218V51.8992H50.8446V55.1153H51.8905V55.6218H50.0547Z" fill="#80858C"></path><path d="M52.2129 55.6218V51.8992H53.0028V55.6218H52.2129Z" fill="#80858C"></path><path d="M54.471 55.6623C54.2808 55.6623 54.1151 55.6286 53.9735 55.5612C53.8322 55.4919 53.7224 55.3973 53.6445 55.2774C53.5688 55.1558 53.5347 55.0157 53.542 54.857V52.6638C53.5542 52.4158 53.6554 52.2198 53.8455 52.0764C54.0357 51.9312 54.2857 51.8586 54.5952 51.8586C54.9074 51.8586 55.1586 51.9312 55.3487 52.0764C55.5389 52.2216 55.6387 52.4174 55.6485 52.6638V53.2362H54.8586V52.6638C54.8586 52.5778 54.8355 52.5111 54.7891 52.4638C54.7428 52.4149 54.6782 52.3905 54.5952 52.3905C54.5124 52.3905 54.4479 52.4149 54.4015 52.4638C54.3552 52.5111 54.3321 52.5778 54.3321 52.6638V54.9026C54.3321 54.987 54.3552 55.0537 54.4015 55.1026C54.4479 55.1516 54.5124 55.1762 54.5952 55.1762C54.6782 55.1762 54.7428 55.1516 54.7891 55.1026C54.8355 55.0537 54.8586 54.987 54.8586 54.9026V54.2291H54.5442V53.768H55.6485V55.6218H55.1805L55.0853 55.4446C54.9951 55.5223 54.9025 55.578 54.8073 55.6118C54.7124 55.6455 54.6001 55.6623 54.471 55.6623Z" fill="#80858C"></path><path d="M56.2266 55.6218V51.8992H58.0333V52.4613H57.0166V53.439H57.748V54.0366H57.0166V55.0596H58.0333V55.6218H56.2266Z" fill="#80858C"></path><path d="M58.4707 55.6218V51.8992H59.1729L59.9409 53.839L60.0067 54.0113H60.0507V53.839V51.8992H60.7747V55.6218H60.0726L59.3045 53.682L59.2388 53.5097H59.1949V53.682V55.6218H58.4707Z" fill="#80858C"></path><path d="M62.3579 55.6623C62.0458 55.6623 61.7922 55.5907 61.5971 55.4471C61.4021 55.3036 61.3047 55.1069 61.3047 54.857V52.6638C61.3047 52.4191 61.3997 52.224 61.5898 52.0788C61.7824 51.932 62.0384 51.8586 62.3579 51.8586C62.6723 51.8586 62.9259 51.9329 63.1185 52.0814C63.3136 52.2282 63.4112 52.4226 63.4112 52.6638V53.1755H62.6723V52.6638C62.6723 52.5762 62.6468 52.5085 62.5956 52.4612C62.5443 52.4139 62.47 52.3905 62.3726 52.3905C62.2872 52.3905 62.2188 52.4149 62.1678 52.4638C62.119 52.5128 62.0946 52.5795 62.0946 52.6638V54.857C62.0946 54.9399 62.1214 55.0064 62.1751 55.0572C62.2286 55.1061 62.2945 55.1305 62.3726 55.1305C62.4383 55.1305 62.4933 55.1204 62.537 55.1003C62.5834 55.0799 62.6175 55.0495 62.6395 55.009C62.6615 54.9668 62.6723 54.9162 62.6723 54.857V54.3455H63.4112V54.857C63.4112 55.0141 63.3661 55.1534 63.2758 55.275C63.1855 55.3965 63.0613 55.4919 62.9029 55.5612C62.7467 55.6286 62.5652 55.6623 62.3579 55.6623Z" fill="#80858C"></path><path d="M63.8848 55.6218V51.8992H65.6915V52.4613H64.6747V53.439H65.4062V54.0366H64.6747V55.0596H65.6915V55.6218H63.8848Z" fill="#80858C"></path></svg>