<svg xmlns="http://www.w3.org/2000/svg" width="144" height="33" viewBox="0 0 144 33" fill="none"><path d="M21.0737 32.5852C21.0737 24.8084 21.0978 17.0392 21.146 9.2776C21.146 6.56027 21.146 3.85428 21.146 1.13696C21.146 0.727652 20.7534 0 21.6419 0C24.1316 2.10337 26.6214 4.21809 29.1214 6.31009C29.354 6.44574 29.5499 6.64646 29.6896 6.89196C29.8292 7.13746 29.9076 7.41913 29.9169 7.70859C29.8618 16.0463 29.8308 24.3498 29.8239 32.6193L21.0737 32.5852Z" fill="#80858C"></path><path d="M31.5986 32.5849V14.3936C33.8508 16.2695 35.731 18.0546 37.7972 19.4531C38.779 19.9927 39.5749 20.8688 40.065 21.9495C40.555 23.0302 40.7127 24.2569 40.5142 25.4448C40.2663 27.7983 40.4109 30.2087 40.3696 32.6076L31.5986 32.5849Z" fill="#80858C"></path><path d="M50.5871 32.5852L47.209 22.5913C47.0953 22.2389 46.93 21.7387 47.4776 21.7842C48.0251 21.8296 49.0788 21.227 49.4508 22.4777C49.9673 24.2513 50.4838 26.0023 51.0727 27.7645C51.1967 28.1511 51.1657 28.6286 51.6512 28.9015C52.2711 26.8322 52.9323 24.8084 53.5005 22.7505C53.5558 22.4131 53.7304 22.1136 53.986 21.9176C54.2416 21.7216 54.5574 21.645 54.8642 21.7046C55.5873 21.7046 56.0109 21.8864 56.2382 22.7278C56.8064 24.797 57.4882 26.8208 58.2424 29.2652C58.8932 27.1278 59.5027 25.4224 59.916 23.6601C60.3292 21.8978 61.0214 21.2725 62.7363 21.8864L59.3581 32.5738H57.0233C55.8559 30.4591 55.4633 28.026 54.7918 25.7521C54.7918 25.4679 54.4716 25.7521 54.6575 25.6611C54.8435 25.5702 54.7815 25.6611 54.7712 25.7521C54.533 28.1739 53.8021 30.5056 52.6327 32.5738L50.5871 32.5852Z" fill="#80858C"></path><path d="M134.165 32.5853C134.165 29.345 134.165 26.116 134.113 22.8757C134.113 21.9547 134.392 21.6478 135.208 21.7387C135.834 21.7899 136.463 21.7899 137.089 21.7387C140.033 21.5227 142.13 22.7961 143.225 25.8659V28.424C143.106 29.5486 142.623 30.5884 141.864 31.3526C141.105 32.1169 140.121 32.5546 139.093 32.5853H134.165Z" fill="#80858C"></path><path d="M87.0781 32.5847C87.0781 29.4467 87.1711 26.3087 87.1401 23.182C87.1401 22.045 87.3881 21.6585 88.4418 21.7153C90.1361 21.8063 91.8407 21.7722 93.5453 21.7153C94.3304 21.7153 94.6713 21.8973 94.661 22.8523C94.6507 23.8074 94.2891 23.921 93.6279 23.8869C92.5948 23.8869 91.4894 23.8869 90.4253 23.8869C89.6918 23.8869 89.3923 24.0802 89.3923 24.9557C89.3923 25.8311 89.6712 26.1836 90.4873 26.0926C91.3035 26.0017 92.2436 26.0926 93.1114 26.0926C93.9792 26.0926 93.9585 26.5361 93.9585 27.2296C93.9585 27.9232 93.7726 28.2074 93.132 28.1733C92.2539 28.1733 91.3758 28.1733 90.508 28.1733C89.6402 28.1733 89.3923 28.3893 89.3923 29.3103C89.3923 30.2312 89.6712 30.5496 90.4873 30.4472C91.3035 30.3449 92.037 30.4472 92.8221 30.4472C94.9916 30.4472 94.692 30.1175 94.7127 32.5961L87.0781 32.5847Z" fill="#80858C"></path><path d="M75.7129 32.5851C75.7129 29.3902 75.7645 26.2067 75.7129 23.0119C75.7129 22.091 75.8782 21.6703 76.8286 21.7044C77.7791 21.7385 78.0787 21.9318 78.0063 22.9551C77.934 23.9783 78.0063 24.9561 78.0063 26.3659C78.9739 25.3476 79.8879 24.2696 80.744 23.137C81.1407 22.5048 81.7196 22.0384 82.3871 21.8135C83.0546 21.5886 83.7716 21.6182 84.4218 21.8977C83.3164 23.1825 82.304 24.4331 81.2089 25.6042C80.6614 26.184 80.713 26.582 81.1469 27.1959C82.3866 28.9582 83.5747 30.7773 84.7834 32.5737H82.149C81.0333 31.9029 80.5374 30.6409 79.8143 29.6063C79.618 29.322 79.432 28.9127 79.0498 28.9923C78.6675 29.0718 78.5229 29.5494 78.4506 29.9701C78.2956 30.8342 78.6572 31.7892 78.058 32.5737L75.7129 32.5851Z" fill="#80858C"></path><path d="M62.8613 32.5854C64.132 29.311 65.4234 26.0479 66.6631 22.762C66.7404 22.4347 66.9211 22.1484 67.173 21.9546C67.4248 21.7608 67.7312 21.6722 68.0371 21.7047C68.3648 21.6515 68.6989 21.7303 68.9779 21.9267C69.257 22.1231 69.4622 22.4238 69.5557 22.7734C70.7851 26.0706 72.0971 29.311 73.3885 32.5854H71.0434C70.8884 32.3808 70.6921 32.2216 70.5475 31.9942C70.1522 31.3165 69.5615 30.8047 68.8702 30.5408C68.1789 30.2769 67.4271 30.2762 66.7354 30.5389C65.8366 30.8913 65.8986 32.0624 65.2064 32.5854H62.8613Z" fill="#80858C"></path><path d="M14.0684 32.585C14.0684 24.126 14.0684 15.667 14.0684 7.21936C14.0684 5.75268 14.4093 4.78626 15.68 4.29736C15.742 4.36558 15.8453 4.4338 15.8453 4.51339C15.8453 13.8744 15.8453 23.2316 15.8453 32.585H14.0684Z" fill="#80858C"></path><path d="M17.5697 32.5855C17.5697 23.126 17.5697 13.6552 17.5697 4.16154C17.4892 3.59301 17.5917 3.01136 17.8596 2.51723C18.1275 2.0231 18.5439 1.64756 19.0367 1.45557C19.1967 1.72378 19.256 2.04981 19.202 2.36512V31.6191C19.2479 31.9389 19.1971 32.2664 19.0574 32.5514L17.5697 32.5855Z" fill="#80858C"></path><path d="M97.9253 32.585C97.9253 29.1741 97.8633 25.8883 97.791 22.5457C97.791 21.8748 98.0493 21.727 98.5762 21.7384C100.57 21.7384 102.554 21.7384 104.547 21.7384C105.436 21.7384 105.24 22.3978 105.271 22.9436C105.302 23.4893 105.271 23.9782 104.516 23.9555C103.308 23.9555 102.089 23.9555 100.88 23.9555C100.043 23.9555 99.9398 24.342 99.9398 25.0924C99.9398 25.8428 100.064 26.2976 100.89 26.2294C101.717 26.1612 102.74 26.2294 103.659 26.2294C104.578 26.2294 104.64 26.5591 104.64 27.3663C104.64 28.1736 104.382 28.5033 103.607 28.4351H103.463C102.316 28.5715 100.725 27.8438 100.146 28.7648C99.5679 29.6857 99.9812 31.3116 99.9502 32.6418L97.9253 32.585Z" fill="#80858C"></path><path d="M10.5566 32.5846C10.5566 25.0579 10.5566 17.5312 10.5566 10.0045C10.4686 9.43802 10.5682 8.85562 10.8374 8.36318C11.1067 7.87074 11.5276 7.501 12.0236 7.32129C12.171 7.65665 12.218 8.0348 12.1579 8.40141V31.4931C12.2264 31.878 12.1793 32.2771 12.0236 32.63L10.5566 32.5846Z" fill="#80858C"></path><path d="M124.517 32.585C124.517 29.2992 124.517 26.0133 124.424 22.7275C124.424 21.7838 124.847 21.7271 125.457 21.7271C126.066 21.7271 126.562 21.727 126.49 22.7162C126.438 24.8878 126.49 27.0707 126.49 29.2423C126.49 30.1405 126.717 30.493 127.523 30.3793C128.143 30.3793 128.783 30.3793 129.414 30.3793C131.397 30.3793 131.397 30.3793 131.48 32.5736L124.517 32.585Z" fill="#80858C"></path><path d="M7.05364 32.5849C7.05364 28.0371 7.11562 23.5802 7.05364 19.0779C6.95749 18.4855 7.04988 17.8748 7.31523 17.3488C7.58059 16.8227 8.00265 16.4134 8.51028 16.1899C8.79954 16.622 8.66524 17.1109 8.66524 17.5771C8.66524 22.1249 8.66524 26.6727 8.66524 31.2205C8.74435 31.6949 8.69773 32.1843 8.53094 32.6303L7.05364 32.5849Z" fill="#80858C"></path><path d="M3.53939 32.5853C3.53939 29.0834 3.62204 25.5702 3.53939 22.0798C3.4313 21.409 3.55319 20.7179 3.88144 20.1403C4.20969 19.5627 4.72097 19.1397 5.31632 18.9531V32.5967L3.53939 32.5853Z" fill="#80858C"></path><path d="M108.453 32.5848C108.453 29.1739 108.381 25.8767 108.309 22.5227C108.309 21.5449 108.887 21.7496 109.342 21.7155C109.796 21.6814 110.468 21.7155 110.457 22.6705C110.457 25.9677 110.457 29.2763 110.457 32.5848H108.453Z" fill="#80858C"></path><path d="M0.0382706 22.989L1.49493 22.0112C1.73255 25.5309 1.73255 29.0652 1.49493 32.5849C0.265555 32.8691 -0.0547064 32.3461 0.0072791 30.9818C0.120919 28.3213 0.0382706 25.6495 0.0382706 22.989Z" fill="#80858C"></path><path d="M19.0283 32.5849C19.0283 22.2159 19.0283 11.8506 19.0283 1.48913C19.6909 1.28448 19.3803 1.88708 19.3803 2.06899C19.3803 12.2334 19.3803 22.4054 19.3803 32.5849H19.0283Z" fill="#80858C"></path><path d="M12.0205 32.5858V7.32247C12.6417 7.24288 12.3311 7.77727 12.3311 7.98193C12.3311 16.1756 12.3311 24.3769 12.3311 32.5858H12.0205Z" fill="#80858C"></path><path d="M139.136 32.5851C140.078 32.3082 140.945 31.7854 141.665 31.061C142.384 30.3366 142.934 29.432 143.268 28.4238C143.268 29.8109 143.764 31.7324 143.123 32.4259C142.483 33.1195 140.737 32.5851 139.466 32.5851H139.136Z" fill="#FBFBFB"></path><path d="M8.5625 32.5848C8.5625 27.1123 8.5625 21.6473 8.5625 16.1899C9.27694 16.1217 8.88348 16.7243 8.88348 16.9517C8.88348 22.159 8.88348 27.3662 8.88348 32.5848H8.5625Z" fill="#80858C"></path><path d="M1.49512 32.5854V21.9775C2.16811 21.9775 1.78502 22.5687 1.78502 22.8075C1.78502 26.0592 1.78502 29.2995 1.78502 32.5512L1.49512 32.5854Z" fill="#80858C"></path><path d="M113.711 32.5851V32.2553C113.867 32.0885 114.054 31.9605 114.259 31.8801C114.464 31.7997 114.682 31.7687 114.899 31.7892C116.965 31.937 119.031 31.232 121.005 32.2667V32.5851H113.711Z" fill="#848584"></path><path d="M97.6463 15.3487L94.764 10.71C94.764 12.9839 94.764 14.7575 94.764 16.5425C94.764 17.3952 94.764 17.9068 93.7309 17.8955C92.6978 17.8841 92.6978 17.2588 92.6978 16.4743C92.6978 13.8138 92.6978 11.1533 92.6978 8.51558C92.6978 8.00395 92.3569 7.13989 93.1214 7.04894C93.8859 6.95798 94.8776 6.53732 95.4562 7.69701C95.8901 8.58383 96.4893 9.39104 96.8922 10.2892C97.481 11.5967 97.9252 11.1874 98.3591 10.221C98.793 9.2546 99.2786 8.60658 99.7331 7.7766C99.8615 7.52484 100.049 7.31585 100.277 7.17177C100.504 7.02768 100.762 6.95381 101.025 6.95796C102.192 6.8329 102.636 7.17403 102.574 8.57249C102.46 11.2898 102.512 14.0071 102.574 16.7244C102.574 17.634 102.337 17.8614 101.541 17.8614C100.746 17.8614 100.508 17.5089 100.508 16.6448C100.508 14.8371 100.508 13.0179 100.508 10.744L97.6463 15.3487Z" fill="#80858C"></path><path d="M120.134 11.0625C120.134 13.2 120.134 14.9054 120.134 16.5995C120.134 17.5204 119.979 17.8955 119.029 17.8955C118.078 17.8955 117.996 17.384 117.996 16.5312C117.996 13.8708 117.996 11.1989 117.996 8.57256C117.996 8.03819 117.572 7.16268 118.502 7.02625C118.877 6.88697 119.283 6.88845 119.657 7.03041C120.031 7.17237 120.351 7.4468 120.568 7.81075C121.746 9.74357 123.068 11.5741 124.597 13.8594C124.597 11.6537 124.649 9.89138 124.597 8.17458C124.597 7.21954 124.917 7.03763 125.703 7.03763C126.488 7.03763 126.839 7.28776 126.829 8.17458C126.829 10.8464 126.829 13.5069 126.829 16.1333C126.829 16.7245 127.252 17.6454 126.312 17.8615C125.916 17.9898 125.492 17.9701 125.107 17.8056C124.722 17.6411 124.398 17.3409 124.184 16.9519C122.934 15.0305 121.632 13.2568 120.134 11.0625Z" fill="#80858C"></path><path d="M89.1449 12.4155C89.1449 13.905 89.0932 15.4058 89.1449 16.8952C89.1449 17.873 88.711 17.873 88.1118 17.873C87.5126 17.873 86.9237 17.873 87.0787 16.8724C87.0838 16.7664 87.0838 16.6601 87.0787 16.554C87.0064 13.2568 87.0064 13.2909 83.9794 13.416C83.2149 13.416 82.9463 13.7116 82.9463 14.553C82.9463 15.1897 82.9463 15.8377 82.9463 16.4744C82.998 17.384 82.9463 17.9184 81.8203 17.9298C80.6942 17.9412 80.7045 17.3158 80.7149 16.4404C80.7149 13.6775 80.7149 10.9034 80.7149 8.12915C80.7149 7.19684 80.9938 6.99219 81.8099 6.99219C82.6261 6.99219 83.0806 7.07178 82.9567 8.12915C82.9412 8.39417 82.9412 8.66003 82.9567 8.92504C82.9567 11.3127 82.9567 11.3126 85.1055 11.3126C86.996 11.3126 87.0064 11.3126 87.0167 8.51568C87.0167 7.6857 86.9237 7.00357 88.0498 7.00357C89.1759 7.00357 89.0829 7.69707 89.0829 8.51568C89.1449 9.75498 89.1449 11.0853 89.1449 12.4155Z" fill="#80858C"></path><path d="M142.781 17.9295C141.521 17.7134 140.457 18.3501 139.682 17.145C139.289 16.5424 138.918 17.145 138.587 17.3837C138.106 17.7526 137.546 17.9762 136.962 18.032C136.379 18.0879 135.792 17.9741 135.26 17.7021C134.783 17.4967 134.362 17.1577 134.041 16.7186C133.719 16.2795 133.506 15.7556 133.425 15.1985C133.344 14.6415 133.396 14.0707 133.576 13.5426C133.757 13.0146 134.06 12.5476 134.455 12.1878C134.95 11.6762 135.302 11.3919 134.796 10.5733C134.636 10.3166 134.526 10.0267 134.472 9.72132C134.418 9.41594 134.422 9.10167 134.483 8.79795C134.544 8.49423 134.661 8.20748 134.827 7.9555C134.992 7.70352 135.203 7.49164 135.446 7.33296C135.916 6.93787 136.499 6.74222 137.089 6.78189C137.679 6.82157 138.237 7.09391 138.659 7.54898C138.881 7.73801 139.066 7.97487 139.202 8.24515C139.339 8.51543 139.423 8.81347 139.451 9.12098C139.479 9.4285 139.45 9.73906 139.366 10.0337C139.281 10.3284 139.142 10.601 138.959 10.8348C137.926 11.9718 138.67 12.5403 139.32 13.3248C139.961 12.5289 140.601 11.8581 141.387 13.2224C141.583 13.5863 141.8 13.8705 141.438 14.1547C140.405 14.962 140.953 15.5987 141.573 16.2809C141.914 16.6902 142.213 17.1677 142.781 17.9295Z" fill="#80858C"></path><path d="M121.025 32.2666H113.731C113.731 29.0718 113.731 25.8883 113.669 22.6934C113.669 21.943 113.886 21.6701 114.588 21.6815C116.427 21.6815 118.277 21.6815 120.126 21.6815C120.983 21.6815 121.025 22.1135 121.045 22.8185C121.066 23.5234 120.766 23.9554 120.012 23.8872C118.896 23.8304 117.77 23.8872 116.655 23.8872C115.942 23.8872 115.735 24.1829 115.756 24.9219C115.776 25.6609 115.756 26.1839 116.665 26.1271C117.574 26.0702 118.504 26.1271 119.423 26.1271C120.188 26.1271 120.456 26.3772 120.456 27.264C120.456 28.1509 120.146 28.2532 119.496 28.2191C118.617 28.2191 117.739 28.2191 116.872 28.2191C116.004 28.2191 115.766 28.4464 115.756 29.356C115.745 30.2656 116.117 30.493 116.882 30.493C117.646 30.493 118.648 30.5839 119.506 30.493C120.942 30.1746 121.355 30.8227 121.025 32.2666Z" fill="#80858C"></path><path d="M115.435 17.6686C113.927 18.1233 112.925 17.7936 112.594 16.111C112.47 15.4856 112.067 15.2923 111.499 15.3265C110.966 15.3776 110.43 15.3776 109.898 15.3265C108.699 15.1559 107.831 15.4287 107.542 16.9068C107.253 18.3848 106.282 17.8277 105.528 17.7595C105.011 17.7595 105.249 17.2024 105.373 16.8841C106.571 13.8029 107.8 10.7445 108.947 7.64066C109.267 6.78795 109.836 7.02667 110.383 6.95845C110.64 6.89128 110.911 6.9352 111.14 7.08114C111.369 7.22707 111.538 7.46391 111.613 7.74295C112.904 11.0174 114.133 14.2805 115.435 17.6686Z" fill="#80858C"></path><path d="M59.0586 10.7666C59.0586 9.95935 59.0586 9.16349 59.0586 8.36761C59.0586 7.57173 59.0586 6.90088 60.1743 6.91225C61.2901 6.92362 61.2074 7.56033 61.2074 8.33347C61.2074 9.9366 61.2074 11.5284 61.2074 13.1201C61.3004 14.9961 62.0752 15.8034 63.5215 15.7124C64.9679 15.6214 65.4534 14.7914 65.4741 12.9382C65.4741 11.3351 65.4741 9.74333 65.4741 8.1402C65.4741 7.2761 65.6497 6.9009 66.5072 6.93501C67.3646 6.96912 67.6746 7.04871 67.6436 8.07198C67.5712 9.9821 67.6436 11.9036 67.5816 13.7568C67.4679 16.4401 65.9183 17.8954 63.3459 17.8954C60.7735 17.8954 59.2136 16.4515 59.0896 13.7568C59.0276 12.7563 59.0896 11.733 59.0896 10.7325L59.0586 10.7666Z" fill="#80858C"></path><path d="M73.9163 17.9185C72.9037 17.9429 71.9087 17.6255 71.065 17.009C70.6517 16.7247 69.7736 16.5769 70.4451 15.656C70.8583 15.0989 71.1683 14.3485 72.0257 15.0989C72.7024 15.638 73.5261 15.9068 74.3605 15.8606C74.6305 15.9018 74.9052 15.8395 75.1384 15.6843C75.3717 15.529 75.5493 15.2902 75.6415 15.0079C75.8172 14.2575 75.2283 13.9733 74.7428 13.7686C73.9266 13.4389 73.0692 13.2229 72.2427 12.8932C71.6549 12.6986 71.1501 12.2782 70.8202 11.7085C70.4903 11.1389 70.3572 10.4578 70.4451 9.78928C70.4728 9.14514 70.6889 8.5281 71.0613 8.0302C71.4336 7.53229 71.9422 7.18016 72.5113 7.0264C73.2132 6.79964 73.9496 6.7321 74.6759 6.82787C75.4022 6.92363 76.1033 7.18076 76.7366 7.58357C77.2118 7.84507 77.6354 8.14068 77.1499 8.72053C76.6643 9.30038 76.6953 10.1758 75.7758 9.51635C75.2072 9.09555 74.5395 8.86643 73.8543 8.85696C73.2758 8.85696 72.7179 9.02751 72.6146 9.70969C72.5113 10.3919 72.9555 10.6534 73.4514 10.8466L75.1147 11.4264C77.3048 12.1996 78.0176 13.1888 77.78 15.1103C77.5424 17.0317 76.1994 17.9299 73.9163 17.9185Z" fill="#80858C"></path><path d="M52.6135 17.9177C51.523 17.9996 50.4378 17.6893 49.5215 17.0335C48.6052 16.3777 47.9073 15.4119 47.5331 14.2817C47.1589 13.1514 47.1287 11.9179 47.4469 10.7671C47.765 9.61625 48.4144 8.61035 49.2972 7.90102C50.1992 7.20207 51.2688 6.8119 52.3715 6.77953C53.4743 6.74717 54.5612 7.07409 55.4958 7.71914C55.8677 8.00338 56.4565 8.31036 55.8264 8.8561C55.4131 9.2313 55.3925 10.391 54.3284 9.61785C53.7337 9.092 52.9752 8.8439 52.216 8.92681C51.4569 9.00973 50.7576 9.41705 50.2683 10.0613C49.7917 10.703 49.5313 11.5064 49.5313 12.3352C49.5313 13.1641 49.7917 13.9674 50.2683 14.6091C50.7938 15.2507 51.5258 15.6417 52.3089 15.699C53.0921 15.7563 53.8646 15.4754 54.4627 14.9161C55.4338 14.177 55.6507 15.1435 56.0743 15.5528C56.7355 16.2008 55.9503 16.451 55.6507 16.6897C54.8167 17.5086 53.7308 17.9477 52.6135 17.9177Z" fill="#80858C"></path><path d="M136.252 27.1049V26.1499C136.252 23.876 137.027 23.2507 139.062 24.0806C139.602 24.2612 140.074 24.631 140.406 25.1338C140.738 25.6366 140.912 26.2448 140.901 26.8661C140.999 27.5296 140.892 28.2102 140.596 28.7981C140.299 29.386 139.832 29.8469 139.269 30.1065C137.202 31.0956 136.252 30.4361 136.252 28.0599V27.1049Z" fill="#EEF5FA"></path><path d="M68.0998 28.1055C67.7176 27.8895 66.8911 28.4466 67.0048 27.6053C67.1025 26.6289 67.4621 25.7066 68.0379 24.9561C68.6318 25.7013 69.0127 26.6228 69.1329 27.6053C69.2982 28.4808 68.4821 27.8781 68.0998 28.1055Z" fill="#F6F6F6"></path><path d="M138.142 14.9735C138 15.2495 137.8 15.4843 137.56 15.6584C137.319 15.8324 137.044 15.9406 136.757 15.9739C136.589 16.0064 136.417 15.9993 136.252 15.9528C136.087 15.9062 135.933 15.8215 135.8 15.7042C135.667 15.5869 135.558 15.4397 135.481 15.2725C135.404 15.1054 135.36 14.922 135.352 14.7347C135.259 13.8819 135.745 13.0861 136.385 13.1202C137.263 13.1543 137.563 14.2458 138.142 14.9735Z" fill="#FBFBFB"></path><path d="M137.7 9.47067C137.648 9.93684 137.4 10.3689 137.018 10.3689C136.636 10.3689 136.398 9.85726 136.398 9.41384C136.391 9.30577 136.407 9.19746 136.445 9.09732C136.482 8.99719 136.54 8.90794 136.614 8.83646C136.688 8.76498 136.776 8.71321 136.871 8.68518C136.966 8.65714 137.066 8.65356 137.162 8.67477C137.555 8.69751 137.7 9.03862 137.7 9.47067Z" fill="#F9F9F9"></path><path d="M110.208 10.1309C110.745 10.6311 110.745 11.3701 111.045 11.9386C111.633 13.0755 111.303 13.3484 110.197 13.3597C109.092 13.3711 108.844 12.9618 109.381 11.9272C109.681 11.3587 109.681 10.6084 110.208 10.1309Z" fill="#F4F4F4"></path></svg>